<svg width="40" height="40" viewBox="0 0 40 40" fill="none" xmlns="http://www.w3.org/2000/svg">
<path d="M39.1966 23.3752C39.396 22.2568 39.5 21.1054 39.5 19.9297C39.5 18.754 39.3959 17.6026 39.1966 16.4842L30.3366 18.0744C30.444 18.6766 30.5 19.2966 30.5 19.9297C30.5 20.5628 30.444 21.1828 30.3366 21.785L39.1966 23.3752Z" fill="#BDB8FF"/>
<path d="M36.009 31.0664L28.6203 25.9264C27.908 26.9484 27.0187 27.8377 25.9967 28.55L31.1367 35.9388C33.0346 34.616 34.6863 32.9644 36.009 31.0664Z" fill="#BDB8FF"/>
<path d="M23.4455 39.1262L21.8553 30.2663C21.2531 30.3737 20.6331 30.4297 20 30.4297C19.3669 30.4297 18.7469 30.3737 18.1447 30.2663L16.5545 39.1262C17.6729 39.3256 18.8243 39.4297 20 39.4297C21.1757 39.4297 22.3271 39.3256 23.4455 39.1262Z" fill="#BDB8FF"/>
<path d="M8.86327 35.9388L14.0033 28.55C12.9813 27.8377 12.092 26.9484 11.3797 25.9264L3.99095 31.0664C5.31372 32.9644 6.96535 34.616 8.86327 35.9388Z" fill="#BDB8FF"/>
<path d="M0.803448 23.3752L9.66339 21.785C9.55603 21.1828 9.5 20.5628 9.5 19.9297C9.5 19.2966 9.55603 18.6766 9.66339 18.0744L0.803446 16.4842C0.604051 17.6026 0.5 18.754 0.5 19.9297C0.5 21.1054 0.604051 22.2568 0.803448 23.3752Z" fill="#BDB8FF"/>
<path d="M3.99093 8.79296L11.3797 13.933C12.092 12.911 12.9813 12.0217 14.0033 11.3094L8.86325 3.92063C7.92022 4.57789 7.03799 5.31634 6.22669 6.12585C6.2165 6.13602 6.20633 6.14619 6.19616 6.15638C5.38664 6.96768 4.64819 7.84992 3.99093 8.79296Z" fill="#BDB8FF"/>
<path d="M16.5545 0.733134L18.1447 9.59308C18.7469 9.48572 19.3669 9.42969 20 9.42969C20.6331 9.42969 21.2531 9.48572 21.8553 9.59308L23.4455 0.733134C22.3271 0.533739 21.1757 0.429688 20 0.429688C18.8243 0.429688 17.6729 0.533739 16.5545 0.733134Z" fill="#BDB8FF"/>
<path d="M31.1367 3.92063L25.9967 11.3094C27.0187 12.0217 27.908 12.911 28.6203 13.933L36.0091 8.79296C35.352 7.85017 34.6138 6.96815 33.8045 6.15703C33.7939 6.14641 33.7833 6.1358 33.7727 6.12521C32.9615 5.31595 32.0795 4.57771 31.1367 3.92063Z" fill="#BDB8FF"/>
</svg>
