<svg width="40" height="39" viewBox="0 0 40 39" fill="none" xmlns="http://www.w3.org/2000/svg">
<path d="M24.5104 13.2682L20.2422 17.5364L15.974 13.2682L11.0242 18.218L20.2422 27.4359L29.4602 18.218L24.5104 13.2682Z" fill="#30CE57"/>
<path fill-rule="evenodd" clip-rule="evenodd" d="M0.5 19.5C0.5 8.73045 9.23045 0 20 0C30.7696 0 39.5 8.73045 39.5 19.5C39.5 30.2696 30.7696 39 20 39C9.23045 39 0.5 30.2696 0.5 19.5ZM20 32C13.0964 32 7.5 26.4036 7.5 19.5C7.5 12.5964 13.0964 7 20 7C26.9036 7 32.5 12.5964 32.5 19.5C32.5 26.4036 26.9036 32 20 32Z" fill="#30CE57"/>
</svg>
