<svg width="41" height="28" viewBox="0 0 41 28" fill="none" xmlns="http://www.w3.org/2000/svg">
<rect x="0.498047" y="0.00390625" width="39.6667" height="28" rx="4.66667" fill="#1F72CD"/>
<path fill-rule="evenodd" clip-rule="evenodd" d="M7.43639 9.91797L3.7251 18.3725H8.16804L8.71883 17.0245H9.97783L10.5286 18.3725H15.4191V17.3437L15.8548 18.3725H18.3845L18.8203 17.3219V18.3725H28.9911L30.2278 17.0595L31.3858 18.3725L36.6097 18.3834L32.8867 14.1688L36.6097 9.91797H31.4668L30.263 11.2067L29.1414 9.91797H18.0769L17.1268 12.1002L16.1544 9.91797H11.7208V10.9118L11.2276 9.91797H7.43639ZM8.29647 11.1172H10.4622L12.9239 16.8503V11.1172H15.2963L17.1977 15.2278L18.95 11.1172H21.3106V17.1839H19.8742L19.8625 12.4301L17.7684 17.1839H16.4836L14.3778 12.4301V17.1839H11.4228L10.8626 15.8238H7.8361L7.27706 17.1827H5.69385L8.29647 11.1172ZM28.4641 11.1172H22.6235V17.1803H28.3736L30.227 15.1709L32.0133 17.1803H33.8807L31.1665 14.1663L33.8807 11.1172H32.0943L30.2504 13.1035L28.4641 11.1172ZM9.34722 12.1484L8.3501 14.5713H10.3432L9.34722 12.1484ZM24.0688 13.4835V12.3761V12.375H27.7132L29.3033 14.1461L27.6427 15.9269H24.0688V14.7179H27.2551V13.4835H24.0688Z" fill="white"/>
</svg>
