<svg width="41" height="28" viewBox="0 0 41 28" fill="none" xmlns="http://www.w3.org/2000/svg">
<rect x="0.498047" y="0.00390625" width="39.6667" height="28" rx="4.66667" fill="#F8F9FA"/>
<path fill-rule="evenodd" clip-rule="evenodd" d="M11.3527 9.73499C11.0198 10.1455 10.487 10.4693 9.95432 10.4231C9.88774 9.86798 10.1485 9.27818 10.4537 8.91389C10.7867 8.49178 11.3693 8.1911 11.841 8.16797C11.8965 8.7462 11.6801 9.31287 11.3527 9.73499ZM11.8361 10.5303C11.3668 10.5022 10.9385 10.6774 10.5926 10.819C10.3701 10.91 10.1816 10.9872 10.0382 10.9872C9.87723 10.9872 9.68096 10.9059 9.46059 10.8147C9.17184 10.6951 8.84171 10.5585 8.49551 10.565C7.70199 10.5766 6.96396 11.045 6.55888 11.7909C5.72651 13.2827 6.34246 15.4916 7.14708 16.7059C7.54107 17.3073 8.01274 17.9664 8.63424 17.9433C8.90766 17.9326 9.10434 17.8456 9.30789 17.7556C9.54223 17.652 9.78568 17.5443 10.1658 17.5443C10.5327 17.5443 10.7655 17.6492 10.989 17.7498C11.2015 17.8455 11.4055 17.9374 11.7084 17.9318C12.3521 17.9202 12.7572 17.3304 13.1512 16.729C13.5764 16.0836 13.7632 15.4537 13.7916 15.3581L13.7949 15.347C13.7942 15.3463 13.789 15.3438 13.7798 15.3394L13.7797 15.3394L13.7797 15.3394C13.6376 15.2716 12.5512 14.7534 12.5408 13.3637C12.5303 12.1973 13.4025 11.6063 13.5397 11.5133C13.5481 11.5076 13.5537 11.5038 13.5563 11.5018C13.0014 10.646 12.1357 10.5535 11.8361 10.5303ZM16.2954 17.8701V8.85547H19.5416C21.2175 8.85547 22.3883 10.0582 22.3883 11.816C22.3883 13.5739 21.1953 14.7882 19.4972 14.7882H17.6383V17.8701H16.2954ZM17.6313 10.0352H19.1795C20.3449 10.0352 21.0107 10.6828 21.0107 11.8219C21.0107 12.961 20.3449 13.6144 19.174 13.6144H17.6313V10.0352ZM26.8181 16.7875C26.4629 17.4929 25.6805 17.9381 24.837 17.9381C23.5885 17.9381 22.7173 17.1633 22.7173 15.9953C22.7173 14.8388 23.5607 14.1738 25.12 14.0755L26.7959 13.9715V13.4742C26.7959 12.7398 26.3353 12.3408 25.514 12.3408C24.837 12.3408 24.3432 12.7051 24.2433 13.2602H23.0336C23.0724 12.0922 24.1268 11.2422 25.5529 11.2422C27.09 11.2422 28.0888 12.0806 28.0888 13.3817V17.8688H26.8458V16.7875H26.8181ZM25.1967 16.8724C24.4809 16.8724 24.0259 16.5139 24.0259 15.9646C24.0259 15.3979 24.4643 15.0683 25.3022 15.0163L26.7949 14.918V15.4268C26.7949 16.271 26.1068 16.8724 25.1967 16.8724ZM32.2132 18.2246C31.6749 19.8032 31.059 20.3236 29.7494 20.3236C29.6495 20.3236 29.3166 20.312 29.2389 20.2889V19.2076C29.3221 19.2192 29.5274 19.2307 29.6329 19.2307C30.2266 19.2307 30.5596 18.9705 30.7649 18.294L30.8869 17.895L28.6118 11.332H30.0157L31.5972 16.6576H31.625L33.2065 11.332H34.5716L32.2132 18.2246Z" fill="#212529"/>
</svg>
