<svg width="41" height="28" viewBox="0 0 41 28" fill="none" xmlns="http://www.w3.org/2000/svg">
<rect x="0.835449" y="0.00390625" width="39.6667" height="28" rx="4.66667" fill="#F8F9FA"/>
<path d="M16.9963 26.8372L39.163 20.1289V23.3372C39.163 25.2702 37.596 26.8372 35.663 26.8372H16.9963Z" fill="#FD6020"/>
<path fill-rule="evenodd" clip-rule="evenodd" d="M34.9555 10.6328C36.1751 10.6328 36.8458 11.1969 36.8458 12.2625C36.9068 13.0774 36.358 13.7669 35.6263 13.8922L37.2726 16.2115H35.9921L34.5897 13.9549H34.4677V16.2115H33.4312V10.6328H34.9555ZM34.4663 13.2041H34.7712C35.4419 13.2041 35.7468 12.8907 35.7468 12.3266C35.7468 11.8251 35.4419 11.5117 34.7712 11.5117H34.4663V13.2041ZM29.8348 16.2154H32.7616V15.2751H30.8714V13.7708H32.7006V12.8306H30.8714V11.5769H32.7616V10.6367H29.8348V16.2154ZM26.784 14.3976L25.3816 10.6367H24.284L26.5401 16.3407H27.0889L29.345 10.6367H28.2474L26.784 14.3976ZM14.409 13.4617C14.409 15.0288 15.6285 16.3451 17.1529 16.3451C17.6407 16.3451 18.0675 16.2197 18.4944 16.0317V14.7781C18.1895 15.1541 17.7627 15.4049 17.2749 15.4049C16.2993 15.4049 15.5066 14.6527 15.5066 13.6498V13.5244C15.4456 12.5215 16.2383 11.644 17.2139 11.5813C17.7017 11.5813 18.1895 11.832 18.4944 12.2081V10.9545C18.1285 10.7038 17.6407 10.6411 17.2139 10.6411C15.6285 10.5157 14.409 11.832 14.409 13.4617ZM12.5173 12.7683C11.9076 12.5176 11.7247 12.3922 11.7247 12.0788C11.7856 11.7027 12.0905 11.3893 12.4564 11.452C12.7612 11.452 13.0661 11.64 13.31 11.8908L13.8588 11.1386C13.432 10.7625 12.8832 10.5118 12.3344 10.5118C11.4808 10.4491 10.7491 11.1386 10.6881 12.0161V12.0788C10.6881 12.831 10.993 13.2698 11.9686 13.5832C12.2125 13.6458 12.4564 13.7712 12.7003 13.8966C12.8832 14.0219 13.0051 14.21 13.0051 14.4607C13.0051 14.8995 12.6393 15.2756 12.2734 15.2756H12.2125C11.7247 15.2756 11.2978 14.9622 11.1149 14.5234L10.4442 15.2129C10.81 15.9024 11.5417 16.2785 12.2734 16.2785C13.249 16.3411 14.0417 15.589 14.1027 14.5861V14.398C14.0417 13.6458 13.7369 13.2698 12.5173 12.7683ZM8.97933 16.2154H10.0159V10.6367H8.97933V16.2154ZM4.16162 10.6328H5.68601H5.99089C7.4543 10.6955 8.61283 11.9491 8.55186 13.4535C8.55186 14.2683 8.186 15.0205 7.57625 15.5846C7.02747 16.0234 6.35674 16.2741 5.68601 16.2115H4.16162V10.6328ZM5.50165 15.2727C5.98946 15.3354 6.53824 15.1474 6.90409 14.8339C7.26994 14.4579 7.45287 13.9564 7.45287 13.3923C7.45287 12.8908 7.26994 12.3894 6.90409 12.0133C6.53824 11.6999 5.98946 11.5118 5.50165 11.5745H5.19678V15.2727H5.50165Z" fill="#212529"/>
<path fill-rule="evenodd" clip-rule="evenodd" d="M21.602 10.5039C20.0776 10.5039 18.7971 11.7575 18.7971 13.3873C18.7971 14.9543 20.0166 16.2706 21.602 16.3333C23.1874 16.396 24.4069 15.0797 24.4678 13.4499C24.4069 11.8202 23.1874 10.5039 21.602 10.5039V10.5039Z" fill="#FD6020"/>
</svg>
