<svg width="41" height="28" viewBox="0 0 41 28" fill="none" xmlns="http://www.w3.org/2000/svg">
<rect x="0.835449" y="0.00390625" width="39.6667" height="28" rx="4.66667" fill="#F8F9FA"/>
<path fill-rule="evenodd" clip-rule="evenodd" d="M19.3938 18.1161V14.6924H21.1608C21.8849 14.6924 22.4961 14.4497 22.9943 13.9712L23.1139 13.8499C24.024 12.8592 23.9642 11.3158 22.9943 10.3992C22.5094 9.91392 21.8451 9.65108 21.1608 9.66456H18.3242V18.1161H19.3938ZM19.3945 13.6551V10.7031H21.1885C21.5738 10.7031 21.9392 10.8514 22.2117 11.121C22.7897 11.6871 22.803 12.6307 22.2449 13.217C21.9725 13.5068 21.5871 13.6686 21.1885 13.6551H19.3945ZM28.0967 12.7848C27.6383 12.3602 27.0139 12.1445 26.2233 12.1445C25.2069 12.1445 24.443 12.522 23.9381 13.2701L24.8814 13.8699C25.2269 13.3577 25.6985 13.1016 26.2964 13.1016C26.6751 13.1016 27.0404 13.2431 27.3261 13.4992C27.6051 13.7418 27.7645 14.0923 27.7645 14.463V14.7124C27.3527 14.4832 26.8345 14.3619 26.1968 14.3619C25.4527 14.3619 24.8549 14.5371 24.4098 14.8943C23.9647 15.2515 23.7388 15.7233 23.7388 16.3231C23.7255 16.8691 23.958 17.388 24.3699 17.7385C24.7884 18.1159 25.3199 18.3046 25.9443 18.3046C26.6817 18.3046 27.2663 17.9744 27.7114 17.3139H27.7579V18.1159H28.7809V14.5506C28.7809 13.8025 28.5551 13.2094 28.0967 12.7848ZM25.192 17.0515C24.9727 16.8897 24.8398 16.6269 24.8398 16.3438C24.8398 16.0271 24.986 15.7642 25.2717 15.5553C25.5641 15.3464 25.9295 15.2385 26.3614 15.2385C26.9593 15.2318 27.4244 15.3666 27.7566 15.6362C27.7566 16.0945 27.5772 16.4921 27.2251 16.8291C26.9062 17.1526 26.4743 17.3346 26.0225 17.3346C25.7235 17.3413 25.4312 17.2402 25.192 17.0515ZM31.0853 20.6594L34.6593 12.3359H33.4967L31.8426 16.4876H31.8227L30.1287 12.3359H28.9661L31.3112 17.7479L29.9825 20.6594H31.0853Z" fill="#3C4043"/>
<path d="M15.7024 13.9606C15.7024 13.6303 15.6759 13.3001 15.6227 12.9766H11.1121V14.8435H13.6962C13.5899 15.4433 13.2445 15.9825 12.7396 16.3194V17.5326H14.2808C15.1843 16.6901 15.7024 15.4433 15.7024 13.9606Z" fill="#4285F4"/>
<path d="M11.114 18.7037C12.4028 18.7037 13.4923 18.2724 14.2828 17.531L12.7416 16.3179C12.3098 16.6144 11.7584 16.7829 11.114 16.7829C9.86514 16.7829 8.80889 15.927 8.43023 14.7812H6.84253V16.0348C7.65299 17.6726 9.30712 18.7037 11.114 18.7037Z" fill="#34A853"/>
<path d="M8.42812 14.7828C8.22879 14.1829 8.22879 13.5292 8.42812 12.9226V11.6758H6.84017C6.15582 13.0439 6.15582 14.6615 6.84017 16.0296L8.42812 14.7828Z" fill="#FBBC04"/>
<path d="M11.114 10.9211C11.7983 10.9076 12.4559 11.1705 12.9475 11.649L14.316 10.2606C13.4458 9.43837 12.3032 8.98681 11.114 9.00029C9.30712 9.00029 7.65299 10.0382 6.84253 11.6759L8.43023 12.9295C8.80889 11.777 9.86514 10.9211 11.114 10.9211Z" fill="#EA4335"/>
</svg>
