<svg width="40" height="28" viewBox="0 0 40 28" fill="none" xmlns="http://www.w3.org/2000/svg">
<rect x="0.172607" y="0.00390625" width="39.6667" height="28" rx="4.66667" fill="#F8F9FA"/>
<path fill-rule="evenodd" clip-rule="evenodd" d="M20.0456 19.6336C18.6642 20.7978 16.8725 21.5005 14.9147 21.5005C10.5457 21.5005 7.00391 18.0009 7.00391 13.6839C7.00391 9.36683 10.5457 5.86719 14.9147 5.86719C16.8725 5.86719 18.6642 6.56994 20.0456 7.73409C21.4269 6.56994 23.2186 5.86719 25.1764 5.86719C29.5454 5.86719 33.0872 9.36683 33.0872 13.6839C33.0872 18.0009 29.5454 21.5005 25.1764 21.5005C23.2186 21.5005 21.4269 20.7978 20.0456 19.6336Z" fill="#ED0006"/>
<path fill-rule="evenodd" clip-rule="evenodd" d="M20.0437 19.632C21.7438 18.1983 22.8217 16.0654 22.8217 13.6839C22.8217 11.3023 21.7438 9.16944 20.0437 7.73573C21.4253 6.5706 23.2178 5.86719 25.1765 5.86719C29.5455 5.86719 33.0873 9.36683 33.0873 13.6839C33.0873 18.0009 29.5455 21.5005 25.1765 21.5005C23.2178 21.5005 21.4253 20.7971 20.0437 19.632Z" fill="#F9A000"/>
<path fill-rule="evenodd" clip-rule="evenodd" d="M20.0456 19.6339C21.7468 18.2002 22.8255 16.0666 22.8255 13.6841C22.8255 11.3016 21.7468 9.1681 20.0456 7.73438C18.3444 9.1681 17.2656 11.3016 17.2656 13.6841C17.2656 16.0666 18.3444 18.2002 20.0456 19.6339Z" fill="#FF5E00"/>
</svg>
