<svg width="41" height="28" viewBox="0 0 41 28" fill="none" xmlns="http://www.w3.org/2000/svg">
<rect x="0.498047" y="0.00390625" width="39.6667" height="28" rx="4.66667" fill="#F8F9FA"/>
<path fill-rule="evenodd" clip-rule="evenodd" d="M17.3781 21.5238L17.6357 19.8332L17.062 19.8194H14.3228L16.2264 7.34346C16.2324 7.30568 16.2515 7.27061 16.2795 7.24567C16.3077 7.22072 16.3435 7.20703 16.3811 7.20703H20.9999C22.5334 7.20703 23.5915 7.53677 24.1439 8.1877C24.403 8.49307 24.5679 8.81226 24.6478 9.16339C24.7315 9.53191 24.7329 9.97213 24.6512 10.5092L24.6453 10.5482V10.8924L24.9043 11.044C25.1224 11.1637 25.2958 11.3005 25.4288 11.4572C25.6503 11.7184 25.7936 12.0502 25.8541 12.4436C25.9167 12.8481 25.8961 13.3297 25.7936 13.8749C25.6754 14.5019 25.4843 15.048 25.2263 15.4948C24.989 15.9065 24.6867 16.2481 24.3277 16.5127C23.9849 16.7641 23.5778 16.955 23.1173 17.0772C22.6711 17.1972 22.1625 17.2578 21.6045 17.2578H21.2451C20.9881 17.2578 20.7385 17.3535 20.5425 17.525C20.346 17.7001 20.216 17.9393 20.1762 18.2009L20.149 18.3531L19.694 21.3331L19.6734 21.4424C19.6679 21.477 19.6585 21.4943 19.6447 21.506C19.6324 21.5167 19.6148 21.5238 19.5976 21.5238H17.3781Z" fill="#28356A"/>
<path fill-rule="evenodd" clip-rule="evenodd" d="M25.152 10.5898C25.1383 10.6809 25.1225 10.774 25.1048 10.8697C24.4957 14.1021 22.4118 15.2188 19.7503 15.2188H18.3952C18.0696 15.2188 17.7953 15.463 17.7447 15.7949L16.8544 21.632C16.8214 21.85 16.9839 22.0463 17.1966 22.0463H19.6001C19.8846 22.0463 20.1264 21.8326 20.1713 21.5425L20.1948 21.4163L20.6474 18.4481L20.6765 18.2853C20.7208 17.9941 20.9631 17.7803 21.2477 17.7803H21.6071C23.9357 17.7803 25.7587 16.8032 26.2916 13.9754C26.514 12.7941 26.3989 11.8077 25.8099 11.114C25.6317 10.9049 25.4106 10.7313 25.152 10.5898Z" fill="#298FC2"/>
<path fill-rule="evenodd" clip-rule="evenodd" d="M24.5109 10.3275C24.4178 10.2994 24.3218 10.2741 24.2234 10.2511C24.1243 10.2287 24.023 10.2089 23.9185 10.1915C23.5532 10.1305 23.1528 10.1016 22.7239 10.1016H19.1037C19.0145 10.1016 18.9298 10.1224 18.8541 10.16C18.687 10.243 18.5631 10.4064 18.533 10.6064L17.7628 15.6482L17.7407 15.7951C17.7913 15.4633 18.0657 15.2191 18.3912 15.2191H19.7463C22.4078 15.2191 24.4918 14.1018 25.1009 10.87C25.1191 10.7743 25.1344 10.6812 25.148 10.5901C24.994 10.5056 24.8271 10.4333 24.6474 10.3717C24.6029 10.3565 24.5571 10.3418 24.5109 10.3275Z" fill="#22284F"/>
<path fill-rule="evenodd" clip-rule="evenodd" d="M18.5334 10.6059C18.5635 10.4059 18.6875 10.2425 18.8545 10.1601C18.9308 10.1224 19.0149 10.1015 19.1041 10.1015H22.7243C23.1532 10.1015 23.5536 10.1306 23.9189 10.1916C24.0234 10.2089 24.1247 10.2288 24.2238 10.2512C24.3222 10.274 24.4182 10.2996 24.5113 10.3275C24.5576 10.3418 24.6033 10.3566 24.6482 10.3713C24.8279 10.4328 24.9949 10.5057 25.149 10.5897C25.3302 9.39515 25.1475 8.58184 24.5227 7.84538C23.8337 7.03449 22.5904 6.6875 20.9994 6.6875H16.3805C16.0555 6.6875 15.7783 6.93171 15.7281 7.26416L13.8042 19.8684C13.7663 20.1177 13.9524 20.3427 14.1957 20.3427H17.0472L18.5334 10.6059Z" fill="#28356A"/>
</svg>
