<svg width="40" height="28" viewBox="0 0 40 28" fill="none" xmlns="http://www.w3.org/2000/svg">
<rect x="0.172607" y="0.00390625" width="39.6667" height="28" rx="4.66667" fill="#F8F9FA"/>
<path fill-rule="evenodd" clip-rule="evenodd" d="M21.3131 9.5016L19.2981 9.94676V8.26504L21.3131 7.82812V9.5016ZM25.5024 10.4336C24.7157 10.4336 24.21 10.8128 23.929 11.0766L23.8246 10.5655H22.0585V20.1777L24.0655 19.7408L24.0735 17.4078C24.3625 17.6221 24.788 17.9271 25.4944 17.9271C26.9314 17.9271 28.2399 16.74 28.2399 14.1268C28.2319 11.7361 26.9073 10.4336 25.5024 10.4336ZM25.0177 16.1154C24.5441 16.1154 24.2631 15.9423 24.0704 15.728L24.0624 12.6696C24.2711 12.4305 24.5601 12.2656 25.0177 12.2656C25.7483 12.2656 26.254 13.1065 26.254 14.1864C26.254 15.2911 25.7563 16.1154 25.0177 16.1154ZM34.57 14.2092C34.57 12.0988 33.5746 10.4336 31.672 10.4336C29.7614 10.4336 28.6054 12.0988 28.6054 14.1927C28.6054 16.6741 29.9701 17.9271 31.9289 17.9271C32.8842 17.9271 33.6067 17.7045 34.1526 17.3913V15.7425C33.6067 16.0228 32.9805 16.1959 32.1858 16.1959C31.4071 16.1959 30.7167 15.9157 30.6284 14.9429H34.554C34.554 14.8975 34.5569 14.7944 34.5602 14.6756L34.5602 14.6754V14.6754V14.6753C34.5647 14.5137 34.57 14.3232 34.57 14.2092ZM30.6054 13.4245C30.6054 12.4929 31.1593 12.1055 31.6651 12.1055C32.1548 12.1055 32.6766 12.4929 32.6766 13.4245H30.6054ZM19.2981 10.5703H21.3131V17.7835H19.2981V10.5703ZM17.0165 10.5735L17.1449 11.1835C17.6186 10.2932 18.5578 10.4746 18.8147 10.5735V12.4695C18.5658 12.3789 17.7631 12.2635 17.2894 12.8982V17.7867H15.2825V10.5735H17.0165ZM13.1282 8.78516L11.1694 9.21383L11.1614 15.817C11.1614 17.0371 12.0525 17.9357 13.2406 17.9357C13.8989 17.9357 14.3805 17.812 14.6455 17.6636V15.9902C14.3886 16.0973 13.1202 16.4765 13.1202 15.2565V12.3299H14.6455V10.574H13.1202L13.1282 8.78516ZM8.38259 12.2225C7.95712 12.2225 7.70023 12.3461 7.70023 12.6676C7.70023 13.0187 8.14234 13.1731 8.69083 13.3647C9.58499 13.677 10.7619 14.088 10.7669 15.6106C10.7669 17.0863 9.61888 17.9354 7.94909 17.9354C7.2587 17.9354 6.50408 17.7952 5.7575 17.4655V15.5035C6.43183 15.8827 7.28278 16.163 7.94909 16.163C8.39865 16.163 8.71976 16.0393 8.71976 15.6601C8.71976 15.2713 8.2405 15.0935 7.66191 14.879C6.78075 14.5522 5.66919 14.14 5.66919 12.7666C5.66919 11.3074 6.75294 10.4336 8.38259 10.4336C9.0489 10.4336 9.70718 10.5408 10.3735 10.8128V12.7501C9.76338 12.4121 8.99271 12.2225 8.38259 12.2225Z" fill="#6461FC"/>
</svg>
