<svg width="40" height="28" viewBox="0 0 40 28" fill="none" xmlns="http://www.w3.org/2000/svg">
<rect x="0.172607" y="0.00390625" width="39.6667" height="28" rx="4.66667" fill="#F8F9FA"/>
<path fill-rule="evenodd" clip-rule="evenodd" d="M12.5447 18.5113H10.1417L8.33973 11.4345C8.2542 11.1089 8.0726 10.8211 7.80546 10.6855C7.1388 10.3446 6.40418 10.0733 5.60278 9.93652V9.66406H9.47388C10.0081 9.66406 10.4088 10.0733 10.4756 10.5487L11.4106 15.6534L13.8125 9.66406H16.1487L12.5447 18.5113ZM17.4816 18.5113H15.2122L17.0809 9.66406H19.3504L17.4816 18.5113ZM22.2873 12.112C22.354 11.6355 22.7548 11.3631 23.2222 11.3631C23.9569 11.2947 24.7571 11.4315 25.4249 11.7712L25.8256 9.86631C25.1578 9.59385 24.4232 9.45703 23.7565 9.45703C21.5538 9.45703 19.951 10.6825 19.951 12.3833C19.951 13.6772 21.0863 14.3566 21.8877 14.7658C22.7548 15.1739 23.0887 15.4464 23.0219 15.8545C23.0219 16.4667 22.354 16.7391 21.6874 16.7391C20.886 16.7391 20.0846 16.5351 19.3511 16.1942L18.9504 18.1002C19.7518 18.4399 20.6189 18.5767 21.4203 18.5767C23.8901 18.644 25.4249 17.4197 25.4249 15.582C25.4249 13.2679 22.2873 13.1323 22.2873 12.112ZM33.3699 18.5113L31.5679 9.66406H29.6324C29.2317 9.66406 28.831 9.93652 28.6974 10.3446L25.3606 18.5113H27.6968L28.1632 17.2186H31.0337L31.3008 18.5113H33.3699ZM29.965 12.0469L30.6317 15.3813H28.7629L29.965 12.0469Z" fill="#172B85"/>
</svg>
