<svg width="42" height="37" viewBox="0 0 42 37" fill="none" xmlns="http://www.w3.org/2000/svg">
<path fill-rule="evenodd" clip-rule="evenodd" d="M17.329 24.8928C21.715 24.8928 25.2012 21.3858 25.2012 17.1446C25.2012 12.9033 21.715 9.3964 17.329 9.3964C12.943 9.3964 9.45677 12.9033 9.45677 17.1446C9.45677 21.3858 12.943 24.8928 17.329 24.8928ZM31.6859 26.7485C33.5621 24.0087 34.658 20.7032 34.658 17.1446C34.658 7.67593 26.8995 6.10352e-05 17.329 6.10352e-05C7.75845 6.10352e-05 0 7.67593 0 17.1446C0 26.6132 7.75845 34.2891 17.329 34.2891C20.9764 34.2891 24.3606 33.1742 27.1525 31.2701L28.4191 32.5232L28.4299 32.5126L32.9656 37L42 28.0618L37.2871 23.3991L32.7938 27.8446L31.6859 26.7485Z" fill="#FEDA00"/>
</svg>
