<svg width="112" height="32" viewBox="0 0 112 32" fill="none" xmlns="http://www.w3.org/2000/svg">
<path d="M110.974 28.3074C110.974 30.0127 109.564 31.394 107.82 31.394H4.59397C2.85062 31.394 1.43555 30.0127 1.43555 28.3074V3.69225C1.43555 1.98774 2.85062 0.601562 4.59397 0.601562H107.819C109.564 0.601562 110.973 1.98774 110.973 3.69225L110.974 28.3074Z" fill="black"/>
<path d="M107.487 0.641C109.386 0.641 110.932 2.148 110.932 4V28C110.932 29.852 109.386 31.359 107.487 31.359H4.92288C3.02339 31.359 1.47775 29.852 1.47775 28V4C1.47775 2.148 3.02339 0.641 4.92288 0.641H107.487ZM107.487 1.69118e-06H4.92288C2.66749 1.69118e-06 0.820312 1.801 0.820312 4V28C0.820312 30.199 2.66749 32 4.92288 32H107.487C109.742 32 111.59 30.199 111.59 28V4C111.59 1.801 109.742 1.69118e-06 107.487 1.69118e-06Z" fill="#A6A6A6"/>
<path d="M25.5389 15.8223C25.5151 13.2439 27.7043 11.9895 27.8044 11.9311C26.5646 10.1687 24.6429 9.92795 23.9677 9.90875C22.3537 9.74315 20.7882 10.8503 19.966 10.8503C19.1275 10.8503 17.8614 9.92475 16.4969 9.95195C14.741 9.97835 13.0983 10.9695 12.1974 12.5087C10.3381 15.6471 11.7248 20.2591 13.5061 22.7959C14.3972 24.0383 15.4384 25.4255 16.8013 25.3767C18.1346 25.3231 18.6327 24.5479 20.2417 24.5479C21.836 24.5479 22.3037 25.3767 23.6936 25.3455C25.1246 25.3231 26.0255 24.0975 26.8854 22.8439C27.9151 21.4199 28.3287 20.0175 28.3451 19.9455C28.3115 19.9344 25.566 18.9127 25.5389 15.8223Z" fill="white"/>
<path d="M22.9133 8.23995C23.6304 7.36555 24.1211 6.17595 23.9849 4.96875C22.9469 5.01355 21.6489 5.66875 20.9014 6.52395C20.2401 7.27755 19.6493 8.51275 19.8019 9.67435C20.9679 9.75915 22.165 9.10075 22.9133 8.23995Z" fill="white"/>
<path d="M44.8356 25.2011H42.9723L41.9515 22.0739H38.4036L37.4313 25.2011H35.6172L39.1323 14.5547H41.3033L44.8356 25.2011ZM41.6439 20.7619L40.7208 17.9819C40.6231 17.6979 40.4402 17.0291 40.1702 15.9763H40.1374C40.0299 16.4291 39.8568 17.0979 39.6188 17.9819L38.7122 20.7619H41.6439Z" fill="white"/>
<path d="M53.8753 21.2688C53.8753 22.5744 53.5135 23.6064 52.7898 24.364C52.1416 25.0384 51.3367 25.3752 50.3758 25.3752C49.3387 25.3752 48.5937 25.012 48.1399 24.2856H48.1071V28.3296H46.3578V20.052C46.3578 19.2312 46.3356 18.3888 46.293 17.5248H47.8314L47.9291 18.7416H47.9619C48.5453 17.8248 49.4306 17.3672 50.6187 17.3672C51.5475 17.3672 52.3229 17.7248 52.9432 18.4408C53.5652 19.1576 53.8753 20.1 53.8753 21.2688ZM52.0932 21.3312C52.0932 20.584 51.9209 19.968 51.5746 19.4832C51.1964 18.9776 50.6885 18.7248 50.0517 18.7248C49.6201 18.7248 49.2279 18.8656 48.8776 19.1432C48.5264 19.4232 48.2967 19.7888 48.1892 20.2416C48.135 20.4528 48.1079 20.6256 48.1079 20.7616V22.0416C48.1079 22.6 48.2835 23.0712 48.6347 23.456C48.9859 23.8408 49.4421 24.0328 50.0033 24.0328C50.6622 24.0328 51.175 23.7848 51.5418 23.2904C51.9094 22.7952 52.0932 22.1424 52.0932 21.3312Z" fill="white"/>
<path d="M62.9311 21.2688C62.9311 22.5744 62.5693 23.6064 61.8448 24.364C61.1974 25.0384 60.3925 25.3752 59.4317 25.3752C58.3945 25.3752 57.6495 25.012 57.1966 24.2856H57.1638V28.3296H55.4144V20.052C55.4144 19.2312 55.3923 18.3888 55.3496 17.5248H56.8881L56.9857 18.7416H57.0185C57.6011 17.8248 58.4864 17.3672 59.6754 17.3672C60.6034 17.3672 61.3787 17.7248 62.0007 18.4408C62.6202 19.1576 62.9311 20.1 62.9311 21.2688ZM61.149 21.3312C61.149 20.584 60.9759 19.968 60.6296 19.4832C60.2514 18.9776 59.7451 18.7248 59.1076 18.7248C58.6752 18.7248 58.2838 18.8656 57.9326 19.1432C57.5814 19.4232 57.3525 19.7888 57.245 20.2416C57.1917 20.4528 57.1638 20.6256 57.1638 20.7616V22.0416C57.1638 22.6 57.3394 23.0712 57.6889 23.456C58.0401 23.84 58.4963 24.0328 59.0592 24.0328C59.718 24.0328 60.2308 23.7848 60.5976 23.2904C60.9652 22.7952 61.149 22.1424 61.149 21.3312Z" fill="white"/>
<path d="M73.0574 22.2152C73.0574 23.1208 72.7349 23.8576 72.0875 24.4264C71.3761 25.048 70.3858 25.3584 69.1132 25.3584C67.9382 25.3584 66.9962 25.1376 66.2832 24.6952L66.6885 23.2736C67.4565 23.7264 68.2992 23.9536 69.2174 23.9536C69.8762 23.9536 70.3891 23.808 70.7575 23.5184C71.1242 23.2288 71.3072 22.84 71.3072 22.3552C71.3072 21.9232 71.1562 21.5592 70.8535 21.264C70.5523 20.9688 70.0494 20.6944 69.347 20.4408C67.4352 19.7456 66.4801 18.7272 66.4801 17.388C66.4801 16.5128 66.8149 15.7952 67.4853 15.2368C68.1532 14.6776 69.0442 14.3984 70.1585 14.3984C71.1521 14.3984 71.9776 14.5672 72.6364 14.904L72.1991 16.2944C71.5837 15.968 70.8879 15.8048 70.1093 15.8048C69.4939 15.8048 69.0131 15.9528 68.6684 16.2472C68.3772 16.5104 68.2311 16.8312 68.2311 17.2112C68.2311 17.632 68.3977 17.98 68.7324 18.2536C69.0237 18.5064 69.553 18.78 70.321 19.0752C71.2604 19.444 71.9505 19.8752 72.3944 20.3696C72.8366 20.8624 73.0574 21.4792 73.0574 22.2152Z" fill="white"/>
<path d="M78.84 18.8022H76.9118V22.5294C76.9118 23.4774 77.2515 23.951 77.9325 23.951C78.2451 23.951 78.5044 23.9246 78.7095 23.8718L78.7579 25.167C78.4133 25.2926 77.9596 25.3558 77.3975 25.3558C76.7067 25.3558 76.1668 25.1502 75.777 24.7398C75.3889 24.3286 75.1936 23.639 75.1936 22.6702V18.8006H74.0449V17.5206H75.1936V16.115L76.9118 15.6094V17.5206H78.84V18.8022Z" fill="white"/>
<path d="M87.5382 21.2992C87.5382 22.4792 87.1919 23.448 86.501 24.2056C85.7765 24.9856 84.8149 25.3744 83.6161 25.3744C82.4608 25.3744 81.541 25.0008 80.8551 24.2536C80.1691 23.5064 79.8262 22.5632 79.8262 21.4264C79.8262 20.2368 80.179 19.2624 80.8871 18.5048C81.5936 17.7464 82.547 17.3672 83.7458 17.3672C84.901 17.3672 85.8307 17.7408 86.5322 18.4888C87.2034 19.2144 87.5382 20.1512 87.5382 21.2992ZM85.7232 21.3544C85.7232 20.6464 85.5681 20.0392 85.2539 19.5328C84.8871 18.92 84.3628 18.6144 83.6834 18.6144C82.9802 18.6144 82.4461 18.9208 82.0793 19.5328C81.765 20.04 81.61 20.6568 81.61 21.3864C81.61 22.0944 81.765 22.7016 82.0793 23.2072C82.4576 23.82 82.986 24.1256 83.6678 24.1256C84.3357 24.1256 84.86 23.8136 85.2383 23.1912C85.5607 22.6752 85.7232 22.0616 85.7232 21.3544Z" fill="white"/>
<path d="M93.2262 19.0248C93.0531 18.9936 92.8685 18.9776 92.6748 18.9776C92.0594 18.9776 91.5835 19.204 91.2488 19.6576C90.9575 20.0576 90.8114 20.5632 90.8114 21.1736V25.2016H89.0629L89.0793 19.9424C89.0793 19.0576 89.0572 18.252 89.0137 17.5256H90.5374L90.6014 18.9944H90.6498C90.8344 18.4896 91.1257 18.0832 91.5245 17.7784C91.9142 17.504 92.3351 17.3672 92.7889 17.3672C92.9505 17.3672 93.0966 17.3784 93.2262 17.3984V19.0248Z" fill="white"/>
<path d="M101.048 21.0066C101.048 21.3122 101.028 21.5698 100.984 21.7802H95.7361C95.7566 22.5386 96.0102 23.1186 96.4975 23.5186C96.9398 23.8762 97.5117 24.0554 98.2141 24.0554C98.9911 24.0554 99.7 23.9346 100.338 23.6922L100.612 24.8762C99.8666 25.193 98.987 25.3506 97.972 25.3506C96.7511 25.3506 95.7927 25.0002 95.0953 24.3002C94.3995 23.6002 94.0508 22.6602 94.0508 21.481C94.0508 20.3234 94.3749 19.3594 95.0239 18.5906C95.7033 17.7698 96.6214 17.3594 97.7767 17.3594C98.9115 17.3594 99.7706 17.7698 100.354 18.5906C100.816 19.2426 101.048 20.049 101.048 21.0066ZM99.38 20.5642C99.3915 20.0586 99.2774 19.6218 99.0403 19.253C98.7375 18.7786 98.2723 18.5418 97.6463 18.5418C97.0744 18.5418 96.6091 18.773 96.2539 19.237C95.9626 19.6058 95.7894 20.0482 95.7361 20.5634H99.38V20.5642Z" fill="white"/>
<path d="M41.0618 8.01478C41.0618 8.95638 40.7721 9.66518 40.1937 10.1412C39.6579 10.5804 38.8964 10.8004 37.9102 10.8004C37.4212 10.8004 37.0027 10.7796 36.6523 10.738V5.59317C37.1094 5.52117 37.6017 5.48438 38.1334 5.48438C39.0729 5.48438 39.781 5.68357 40.2585 6.08197C40.7935 6.53237 41.0618 7.17638 41.0618 8.01478ZM40.1551 8.03798C40.1551 7.42758 39.9894 6.95957 39.6579 6.63317C39.3264 6.30757 38.8423 6.14437 38.2048 6.14437C37.934 6.14437 37.7034 6.16197 37.5122 6.19877V10.11C37.6181 10.126 37.8117 10.1332 38.0932 10.1332C38.7512 10.1332 39.2591 9.95478 39.6169 9.59798C39.9746 9.24118 40.1551 8.72118 40.1551 8.03798Z" fill="white"/>
<path d="M45.8684 8.83745C45.8684 9.41745 45.6985 9.89265 45.3588 10.2654C45.0027 10.6486 44.531 10.8398 43.9418 10.8398C43.374 10.8398 42.9219 10.6566 42.5847 10.2886C42.2483 9.92145 42.0801 9.45825 42.0801 8.89985C42.0801 8.31585 42.2532 7.83665 42.6011 7.46465C42.949 7.09265 43.4167 6.90625 44.0058 6.90625C44.5736 6.90625 45.0298 7.08945 45.3753 7.45665C45.7035 7.81345 45.8684 8.27425 45.8684 8.83745ZM44.9765 8.86465C44.9765 8.51665 44.8994 8.21825 44.7459 7.96945C44.5654 7.66865 44.3086 7.51825 43.9746 7.51825C43.6292 7.51825 43.3666 7.66865 43.1861 7.96945C43.0319 8.21825 42.9556 8.52145 42.9556 8.87985C42.9556 9.22785 43.0327 9.52625 43.1861 9.77505C43.3724 10.0758 43.6317 10.2262 43.9664 10.2262C44.2946 10.2262 44.5523 10.0734 44.7377 9.76705C44.8969 9.51345 44.9765 9.21265 44.9765 8.86465Z" fill="white"/>
<path d="M52.315 6.98438L51.1048 10.7556H50.3171L49.8158 9.11797C49.6886 8.70917 49.5852 8.30278 49.5048 7.89958H49.4892C49.4145 8.31398 49.3111 8.71957 49.1782 9.11797L48.6457 10.7556H47.849L46.7109 6.98438H47.5946L48.032 8.77718C48.1378 9.20118 48.2248 9.60517 48.2945 9.98757H48.3101C48.3741 9.67237 48.48 9.27078 48.6293 8.78518L49.1782 6.98518H49.8789L50.4049 8.74678C50.5321 9.17638 50.6354 9.58998 50.715 9.98838H50.7388C50.7971 9.60038 50.8849 9.18678 51.0014 8.74678L51.4707 6.98518H52.315V6.98438Z" fill="white"/>
<path d="M56.7732 10.7567H55.9133V8.59665C55.9133 7.93105 55.654 7.59825 55.1338 7.59825C54.8786 7.59825 54.6727 7.68945 54.5127 7.87265C54.3543 8.05585 54.2739 8.27185 54.2739 8.51905V10.7559H53.414V8.06305C53.414 7.73185 53.4033 7.37265 53.3828 6.98385H54.1385L54.1787 7.57345H54.2025C54.3026 7.39025 54.4519 7.23905 54.648 7.11825C54.8811 6.97745 55.142 6.90625 55.4275 6.90625C55.7885 6.90625 56.0889 7.01985 56.3276 7.24785C56.6246 7.52705 56.7732 7.94385 56.7732 8.49745V10.7567Z" fill="white"/>
<path d="M59.1462 10.7516H58.2871V5.25H59.1462V10.7516Z" fill="white"/>
<path d="M64.2063 8.83745C64.2063 9.41745 64.0364 9.89265 63.6967 10.2654C63.3406 10.6486 62.868 10.8398 62.2797 10.8398C61.7111 10.8398 61.259 10.6566 60.9226 10.2886C60.5862 9.92145 60.418 9.45825 60.418 8.89985C60.418 8.31585 60.5911 7.83665 60.939 7.46465C61.2869 7.09265 61.7546 6.90625 62.3429 6.90625C62.9115 6.90625 63.3669 7.08945 63.7131 7.45665C64.0414 7.81345 64.2063 8.27425 64.2063 8.83745ZM63.3136 8.86465C63.3136 8.51665 63.2364 8.21825 63.083 7.96945C62.9033 7.66865 62.6457 7.51825 62.3125 7.51825C61.9663 7.51825 61.7037 7.66865 61.524 7.96945C61.3698 8.21825 61.2935 8.52145 61.2935 8.87985C61.2935 9.22785 61.3706 9.52625 61.524 9.77505C61.7103 10.0758 61.9696 10.2262 62.3043 10.2262C62.6325 10.2262 62.8894 10.0734 63.0748 9.76705C63.2348 9.51345 63.3136 9.21265 63.3136 8.86465Z" fill="white"/>
<path d="M68.3687 10.7542H67.5966L67.5326 10.3198H67.5088C67.2446 10.6662 66.868 10.8398 66.379 10.8398C66.0139 10.8398 65.7185 10.7254 65.4961 10.4982C65.2943 10.2918 65.1934 10.035 65.1934 9.73025C65.1934 9.26945 65.3903 8.91825 65.7866 8.67505C66.1821 8.43185 66.7384 8.31265 67.4547 8.31825V8.24785C67.4547 7.75105 67.1872 7.50305 66.6514 7.50305C66.2699 7.50305 65.9335 7.59665 65.643 7.78225L65.4682 7.23185C65.8276 7.01505 66.2715 6.90625 66.795 6.90625C67.8059 6.90625 68.3129 7.42625 68.3129 8.46625V9.85505C68.3129 10.2318 68.3318 10.5318 68.3687 10.7542ZM67.476 9.45825V8.87665C66.5275 8.86065 66.0533 9.11425 66.0533 9.63665C66.0533 9.83345 66.1074 9.98065 66.2182 10.079C66.3289 10.1774 66.4701 10.2262 66.6383 10.2262C66.827 10.2262 67.0034 10.1678 67.1642 10.0518C67.3259 9.93505 67.4252 9.78705 67.4621 9.60545C67.4711 9.56465 67.476 9.51505 67.476 9.45825Z" fill="white"/>
<path d="M73.2548 10.7516H72.4917L72.4515 10.146H72.4277C72.184 10.6068 71.7689 10.8372 71.1855 10.8372C70.7194 10.8372 70.3313 10.6588 70.0236 10.302C69.7159 9.9452 69.5625 9.482 69.5625 8.9132C69.5625 8.3028 69.7291 7.8084 70.0638 7.4308C70.3879 7.0788 70.7851 6.9028 71.2577 6.9028C71.7771 6.9028 72.1405 7.0732 72.3473 7.4148H72.3637V5.25H73.2244V9.7356C73.2244 10.1028 73.2343 10.4412 73.2548 10.7516ZM72.3637 9.1612V8.5324C72.3637 8.4236 72.3555 8.3356 72.3399 8.2684C72.2915 8.0668 72.1873 7.8972 72.029 7.7604C71.869 7.6236 71.6761 7.5548 71.4538 7.5548C71.133 7.5548 70.8819 7.6788 70.6973 7.9276C70.5143 8.1764 70.4216 8.494 70.4216 8.882C70.4216 9.2548 70.5094 9.5572 70.6858 9.79C70.872 10.038 71.1231 10.162 71.4374 10.162C71.7196 10.162 71.9453 10.0588 72.1168 9.8516C72.2825 9.6604 72.3637 9.43 72.3637 9.1612Z" fill="white"/>
<path d="M80.6086 8.83745C80.6086 9.41745 80.4388 9.89265 80.0991 10.2654C79.743 10.6486 79.272 10.8398 78.6821 10.8398C78.1151 10.8398 77.663 10.6566 77.3249 10.2886C76.9885 9.92145 76.8203 9.45825 76.8203 8.89985C76.8203 8.31585 76.9934 7.83665 77.3413 7.46465C77.6892 7.09265 78.1569 6.90625 78.7469 6.90625C79.3138 6.90625 79.7709 7.08945 80.1155 7.45665C80.4437 7.81345 80.6086 8.27425 80.6086 8.83745ZM79.7175 8.86465C79.7175 8.51665 79.6404 8.21825 79.487 7.96945C79.3056 7.66865 79.0496 7.51825 78.7149 7.51825C78.3703 7.51825 78.1077 7.66865 77.9264 7.96945C77.7721 8.21825 77.6958 8.52145 77.6958 8.87985C77.6958 9.22785 77.7729 9.52625 77.9264 9.77505C78.1126 10.0758 78.3719 10.2262 78.7067 10.2262C79.0349 10.2262 79.2933 10.0734 79.4788 9.76705C79.6371 9.51345 79.7175 9.21265 79.7175 8.86465Z" fill="white"/>
<path d="M85.2333 10.7567H84.3742V8.59665C84.3742 7.93105 84.1149 7.59825 83.5939 7.59825C83.3387 7.59825 83.1328 7.68945 82.9736 7.87265C82.8144 8.05585 82.7348 8.27185 82.7348 8.51905V10.7559H81.8741V8.06305C81.8741 7.73185 81.8643 7.37265 81.8438 6.98385H82.5986L82.6388 7.57345H82.6626C82.7635 7.39025 82.9129 7.23905 83.1082 7.11825C83.342 6.97745 83.6021 6.90625 83.8885 6.90625C84.2487 6.90625 84.549 7.01985 84.7877 7.24785C85.0856 7.52705 85.2333 7.94385 85.2333 8.49745V10.7567Z" fill="white"/>
<path d="M91.0197 7.61407H90.0729V9.44607C90.0729 9.91167 90.2411 10.1445 90.5742 10.1445C90.7285 10.1445 90.8565 10.1317 90.9574 10.1053L90.9795 10.7413C90.8097 10.8037 90.5865 10.8349 90.3116 10.8349C89.972 10.8349 89.7077 10.7341 89.5166 10.5325C89.3246 10.3309 89.2294 9.99167 89.2294 9.51567V7.61407H88.6641V6.98607H89.2294V6.29487L90.0721 6.04688V6.98528H91.0189V7.61407H91.0197Z" fill="white"/>
<path d="M95.5701 10.7516H94.7094V8.6076C94.7094 7.9316 94.4501 7.5932 93.9307 7.5932C93.532 7.5932 93.2596 7.7892 93.1102 8.1812C93.0848 8.2636 93.07 8.3644 93.07 8.4828V10.7508H92.2109V5.25H93.07V7.5228H93.0864C93.3572 7.1092 93.7453 6.9028 94.2483 6.9028C94.6044 6.9028 94.8989 7.0164 95.1328 7.2444C95.4241 7.5284 95.5701 7.9508 95.5701 8.5092V10.7516Z" fill="white"/>
<path d="M100.269 8.68182C100.269 8.83222 100.257 8.95862 100.237 9.06182H97.658C97.6695 9.43462 97.7925 9.71862 98.0313 9.91542C98.2496 10.0914 98.531 10.1794 98.8756 10.1794C99.2572 10.1794 99.605 10.1202 99.9185 10.001L100.053 10.5834C99.6863 10.7386 99.2547 10.8162 98.755 10.8162C98.156 10.8162 97.6842 10.6442 97.3429 10.3002C96.9999 9.95622 96.8301 9.49462 96.8301 8.91543C96.8301 8.34662 96.9884 7.87302 97.3076 7.49542C97.6407 7.09222 98.0912 6.89062 98.6598 6.89062C99.2161 6.89062 99.6387 7.09222 99.9242 7.49542C100.155 7.81542 100.269 8.21142 100.269 8.68182ZM99.4483 8.46502C99.4549 8.21622 99.3983 8.00182 99.2818 7.82103C99.1324 7.58823 98.9052 7.47142 98.5975 7.47142C98.3168 7.47142 98.0879 7.58502 97.9132 7.81302C97.7704 7.99462 97.6859 8.21142 97.658 8.46502H99.4483Z" fill="white"/>
</svg>
