<svg width="123" height="65" viewBox="0 0 123 65" fill="none" xmlns="http://www.w3.org/2000/svg">
<path d="M35.9148 45.549H35.2143C34.7264 45.549 34.3328 45.9426 34.3328 46.4305C34.3328 46.9185 34.7264 47.312 35.2143 47.312H35.9148C36.4027 47.312 36.7962 46.9185 36.7962 46.4305C36.7962 45.9426 36.4027 45.549 35.9148 45.549Z" fill="#ADB5BD"/>
<path d="M121.544 56.5987H96.5401C96.0994 56.5987 95.7374 56.9607 95.7374 57.4015C95.7374 57.8422 96.0994 58.2042 96.5401 58.2042H120.662C120.284 60.2583 118.474 61.8245 116.31 61.8245H59.1253C56.961 61.8245 55.1509 60.2583 54.7731 58.2042H78.8952C79.3359 58.2042 79.6979 57.8422 79.6979 57.4015C79.6979 56.9607 79.3359 56.5987 78.8952 56.5987H53.8916C53.4509 56.5987 53.0889 56.9607 53.0889 57.4015C53.0889 60.7305 55.7962 63.4379 59.1253 63.4379H116.31C119.639 63.4379 122.346 60.7305 122.346 57.4015C122.346 56.9607 121.984 56.5987 121.544 56.5987Z" fill="#ADB5BD"/>
<path fill-rule="evenodd" clip-rule="evenodd" d="M5.45708 0.970703H65.782C68.2453 0.970703 70.2522 2.9776 70.2522 5.44096V13.207H113.138C115.649 13.207 117.687 15.2454 117.687 17.756V53.6361C117.687 54.0769 117.325 54.4389 116.884 54.4389C116.444 54.4389 116.082 54.0769 116.082 53.6361V17.756C116.082 16.1426 114.767 14.8204 113.146 14.8204H62.2812C60.6678 14.8204 59.3456 16.1347 59.3456 17.756V53.5277V53.6361C59.3456 54.0769 58.9836 54.4389 58.5428 54.4389C58.1021 54.4389 57.7401 54.0769 57.7401 53.6361V53.5277H42.7617L44.564 62.8539H48.0033C48.4912 62.8539 48.8847 63.2474 48.8847 63.7354C48.8847 64.2233 48.4912 64.6168 48.0033 64.6168H23.2752C22.7872 64.6168 22.3937 64.2233 22.3937 63.7354C22.3937 63.2474 22.7872 62.8539 23.2752 62.8539H26.7144L28.5167 53.5277H5.45708C2.99371 53.5277 0.986816 51.5209 0.986816 49.0575V5.44096C0.986816 2.9776 2.99371 0.970703 5.45708 0.970703ZM68.4815 5.44883V13.207H62.289C59.7785 13.207 57.7401 15.2454 57.7401 17.756V41.809H2.74974V5.44096C2.74974 3.94563 3.96174 2.73362 5.45708 2.73362V2.74149H65.7741C67.2694 2.74149 68.4815 3.9535 68.4815 5.44883ZM2.74974 43.572H57.7401V51.7648H5.45708C3.96174 51.7648 2.74974 50.5528 2.74974 49.0575V43.572ZM40.9516 53.5277L42.7538 62.8539H28.5088L30.3111 53.5277H40.9516Z" fill="#ADB5BD"/>
<path fill-rule="evenodd" clip-rule="evenodd" d="M35.9148 45.549H35.2143C34.7264 45.549 34.3328 45.9426 34.3328 46.4305C34.3328 46.9185 34.7264 47.312 35.2143 47.312H35.9148C36.4027 47.312 36.7962 46.9185 36.7962 46.4305C36.7962 45.9426 36.4027 45.549 35.9148 45.549Z" fill="#ADB5BD"/>
</svg>
