<svg width="108" height="31" viewBox="0 0 108 31" fill="none" xmlns="http://www.w3.org/2000/svg">
<path d="M103.781 31H4.55874C2.37684 31 0.589844 29.2553 0.589844 27.125V3.875C0.589844 1.74472 2.37684 1.63833e-06 4.55874 1.63833e-06H103.781C105.963 1.63833e-06 107.75 1.74472 107.75 3.875V27.125C107.75 29.2553 105.963 31 103.781 31Z" fill="black"/>
<path d="M103.781 0.62097C105.619 0.62097 107.114 2.08088 107.114 3.875V27.125C107.114 28.9191 105.619 30.379 103.781 30.379H4.55874C2.72114 30.379 1.22586 28.9191 1.22586 27.125V3.875C1.22586 2.08088 2.72114 0.62097 4.55874 0.62097H103.781ZM103.781 1.63833e-06H4.55874C2.37684 1.63833e-06 0.589844 1.74472 0.589844 3.875V27.125C0.589844 29.2553 2.37684 31 4.55874 31H103.781C105.963 31 107.75 29.2553 107.75 27.125V3.875C107.75 1.74472 105.963 1.63833e-06 103.781 1.63833e-06Z" fill="#A6A6A6"/>
<path d="M38.2293 7.93884C38.2293 8.58597 38.0309 9.10425 37.6399 9.49078C37.1905 9.949 36.605 10.1796 35.8877 10.1796C35.202 10.1796 34.6166 9.94512 34.1364 9.48303C33.6552 9.01416 33.415 8.43872 33.415 7.74994C33.415 7.06116 33.6552 6.48572 34.1364 6.02072C34.6166 5.55475 35.202 5.32031 35.8877 5.32031C36.229 5.32031 36.5544 5.38909 36.865 5.51697C37.1746 5.64581 37.4266 5.82019 37.6092 6.03525L37.1944 6.44406C36.8759 6.07691 36.4423 5.89575 35.8877 5.89575C35.3876 5.89575 34.954 6.06625 34.5859 6.41016C34.2217 6.75503 34.0391 7.20162 34.0391 7.74994C34.0391 8.29825 34.2217 8.74872 34.5859 9.09359C34.954 9.43362 35.3876 9.608 35.8877 9.608C36.4185 9.608 36.865 9.43362 37.2172 9.08972C37.4494 8.86206 37.5814 8.54819 37.6161 8.14712H35.8877V7.58719H38.1936C38.2214 7.70828 38.2293 7.8255 38.2293 7.93884Z" fill="white" stroke="white" stroke-width="0.0953846" stroke-miterlimit="10"/>
<path d="M41.8896 5.99247H39.7235V7.46497H41.6762V8.0249H39.7235V9.4974H41.8896V10.068H39.1104V5.42188H41.8896V5.99247Z" fill="white" stroke="white" stroke-width="0.0953846" stroke-miterlimit="10"/>
<path d="M44.4701 10.068H43.8569V5.99247H42.5283V5.42188H45.7997V5.99247H44.4701V10.068Z" fill="white" stroke="white" stroke-width="0.0953846" stroke-miterlimit="10"/>
<path d="M48.167 10.068V5.42188H48.7792V10.068H48.167Z" fill="white" stroke="white" stroke-width="0.0953846" stroke-miterlimit="10"/>
<path d="M51.4935 10.068H50.8853V5.99247H49.5518V5.42188H52.8271V5.99247H51.4935V10.068Z" fill="white" stroke="white" stroke-width="0.0953846" stroke-miterlimit="10"/>
<path d="M59.0193 9.47528C58.55 9.94512 57.9686 10.1796 57.275 10.1796C56.5775 10.1796 55.996 9.94512 55.5267 9.47528C55.0584 9.00641 54.8252 8.43097 54.8252 7.74994C54.8252 7.06891 55.0584 6.49347 55.5267 6.02459C55.996 5.55475 56.5775 5.32031 57.275 5.32031C57.9646 5.32031 58.546 5.55475 59.0154 6.02847C59.4877 6.50122 59.7208 7.07278 59.7208 7.74994C59.7208 8.43097 59.4877 9.00641 59.0193 9.47528ZM55.9801 9.08584C56.3334 9.43362 56.763 9.608 57.275 9.608C57.783 9.608 58.2166 9.43362 58.5659 9.08584C58.9181 8.73806 59.0967 8.29147 59.0967 7.74994C59.0967 7.20841 58.9181 6.76181 58.5659 6.41403C58.2166 6.06625 57.783 5.89188 57.275 5.89188C56.763 5.89188 56.3334 6.06625 55.9801 6.41403C55.6279 6.76181 55.4493 7.20841 55.4493 7.74994C55.4493 8.29147 55.6279 8.73806 55.9801 9.08584Z" fill="white" stroke="white" stroke-width="0.0953846" stroke-miterlimit="10"/>
<path d="M60.5811 10.068V5.42188H61.3252L63.6391 9.03531H63.6659L63.6391 8.14212V5.42188H64.2513V10.068H63.6123L61.1893 6.27631H61.1625L61.1893 7.17337V10.068H60.5811Z" fill="white" stroke="white" stroke-width="0.0953846" stroke-miterlimit="10"/>
<path d="M54.6735 16.8544C52.8091 16.8544 51.286 18.2397 51.286 20.151C51.286 22.0469 52.8091 23.4467 54.6735 23.4467C56.5418 23.4467 58.0649 22.0469 58.0649 20.151C58.0649 18.2397 56.5418 16.8544 54.6735 16.8544ZM54.6735 22.1486C53.6505 22.1486 52.7704 21.3242 52.7704 20.151C52.7704 18.9624 53.6505 18.1525 54.6735 18.1525C55.6964 18.1525 56.5805 18.9624 56.5805 20.151C56.5805 21.3242 55.6964 22.1486 54.6735 22.1486ZM47.2824 16.8544C45.414 16.8544 43.8949 18.2397 43.8949 20.151C43.8949 22.0469 45.414 23.4467 47.2824 23.4467C49.1497 23.4467 50.6698 22.0469 50.6698 20.151C50.6698 18.2397 49.1497 16.8544 47.2824 16.8544ZM47.2824 22.1486C46.2584 22.1486 45.3753 21.3242 45.3753 20.151C45.3753 18.9624 46.2584 18.1525 47.2824 18.1525C48.3054 18.1525 49.1855 18.9624 49.1855 20.151C49.1855 21.3242 48.3054 22.1486 47.2824 22.1486ZM38.4873 17.8648V19.2656H41.9135C41.8132 20.0483 41.5453 20.6238 41.1346 21.0248C40.6345 21.5092 39.8556 22.0469 38.4873 22.0469C36.3788 22.0469 34.7278 20.3855 34.7278 18.3269C34.7278 16.2683 36.3788 14.6069 38.4873 14.6069C39.6274 14.6069 40.4569 15.0418 41.0691 15.6057L42.0802 14.6185C41.2239 13.8203 40.0848 13.207 38.4873 13.207C35.596 13.207 33.166 15.5039 33.166 18.3269C33.166 21.1498 35.596 23.4467 38.4873 23.4467C40.0501 23.4467 41.2239 22.9468 42.1466 22.0091C43.0922 21.0859 43.3869 19.7878 43.3869 18.7396C43.3869 18.4141 43.3591 18.1147 43.3095 17.8648H38.4873ZM74.4515 18.9508C74.1726 18.2135 73.3124 16.8544 71.5601 16.8544C69.8237 16.8544 68.378 18.1903 68.378 20.151C68.378 21.9975 69.8088 23.4467 71.7268 23.4467C73.2776 23.4467 74.1726 22.5235 74.5407 21.9858L73.3898 21.237C73.0058 21.7853 72.4829 22.1486 71.7268 22.1486C70.9757 22.1486 70.4369 21.8124 70.0916 21.1498L74.6072 19.3257L74.4515 18.9508ZM69.8475 20.0483C69.8088 18.7773 70.8586 18.1263 71.6107 18.1263C72.2001 18.1263 72.7002 18.4141 72.8669 18.8258L69.8475 20.0483ZM66.1773 23.2462H67.6617V13.5587H66.1773V23.2462ZM63.7464 17.5887H63.6967C63.3633 17.2031 62.7273 16.8544 61.9217 16.8544C60.2309 16.8544 58.685 18.3036 58.685 20.1617C58.685 22.0091 60.2309 23.4467 61.9217 23.4467C62.7273 23.4467 63.3633 23.0951 63.6967 22.6979H63.7464V23.1706C63.7464 24.431 63.0568 25.1081 61.9445 25.1081C61.0376 25.1081 60.475 24.4688 60.2428 23.9311L58.9519 24.4571C59.324 25.3309 60.3093 26.4062 61.9445 26.4062C63.6848 26.4062 65.1533 25.4065 65.1533 22.974V17.0549H63.7464V17.5887ZM62.0487 22.1486C61.0257 22.1486 60.1694 21.3126 60.1694 20.1617C60.1694 19.0002 61.0257 18.1525 62.0487 18.1525C63.0568 18.1525 63.8515 19.0002 63.8515 20.1617C63.8515 21.3126 63.0568 22.1486 62.0487 22.1486ZM81.401 13.5587H77.8508V23.2462H79.3312V19.5756H81.401C83.0451 19.5756 84.6575 18.4141 84.6575 16.5667C84.6575 14.7202 83.0411 13.5587 81.401 13.5587ZM81.4397 18.2281H79.3312V14.9062H81.4397C82.545 14.9062 83.1761 15.8023 83.1761 16.5667C83.1761 17.3165 82.545 18.2281 81.4397 18.2281ZM90.591 16.836C89.5213 16.836 88.4091 17.2971 87.9516 18.3191L89.2654 18.8568C89.5481 18.3191 90.0681 18.1448 90.6178 18.1448C91.3857 18.1448 92.1646 18.5952 92.1765 19.3906V19.4923C91.9086 19.3412 91.3351 19.1174 90.6297 19.1174C89.2148 19.1174 87.773 19.8778 87.773 21.2971C87.773 22.5952 88.932 23.4312 90.2348 23.4312C91.2309 23.4312 91.7806 22.9924 92.1259 22.4818H92.1765V23.2307H93.6063V19.5146C93.6063 17.797 92.2926 16.836 90.591 16.836ZM90.4124 22.1447C89.9282 22.1447 89.2534 21.9103 89.2534 21.3242C89.2534 20.5744 90.0949 20.2867 90.8231 20.2867C91.475 20.2867 91.7806 20.4271 92.1765 20.6122C92.0604 21.5092 91.2696 22.1447 90.4124 22.1447ZM98.8155 17.0481L97.1138 21.2477H97.0632L95.304 17.0481H93.7075L96.3508 22.9168L94.8426 26.1825H96.3895L100.463 17.0481H98.8155ZM85.4711 23.2462H86.9555V13.5587H85.4711V23.2462Z" fill="white"/>
<path d="M8.87495 5.84762C8.64178 6.08593 8.50684 6.45697 8.50684 6.93747V24.0766C8.50684 24.5571 8.64178 24.9281 8.87495 25.1664L8.9325 25.2188L18.7694 15.6184V15.3917L8.9325 5.79144L8.87495 5.84762Z" fill="url(#paint0_linear_23422_98990)"/>
<path d="M22.0439 18.8203L18.7686 15.6186V15.3919L22.0479 12.1902L22.1213 12.2318L26.0048 14.3892C27.1132 15.0015 27.1132 16.009 26.0048 16.6251L22.1213 18.7787L22.0439 18.8203Z" fill="url(#paint1_linear_23422_98990)"/>
<path d="M22.1212 18.7737L18.7685 15.5003L8.87402 25.1616C9.24214 25.5394 9.84243 25.5849 10.5251 25.2071L22.1212 18.7737Z" fill="url(#paint2_linear_23422_98990)"/>
<path d="M22.1212 12.2266L10.5251 5.79313C9.84243 5.41919 9.24214 5.46472 8.87402 5.84253L18.7685 15.5L22.1212 12.2266Z" fill="url(#paint3_linear_23422_98990)"/>
<defs>
<linearGradient id="paint0_linear_23422_98990" x1="17.896" y1="24.2551" x2="4.89337" y2="10.9374" gradientUnits="userSpaceOnUse">
<stop stop-color="#00A0FF"/>
<stop offset="0.0066" stop-color="#00A1FF"/>
<stop offset="0.2601" stop-color="#00BEFF"/>
<stop offset="0.5122" stop-color="#00D2FF"/>
<stop offset="0.7604" stop-color="#00DFFF"/>
<stop offset="1" stop-color="#00E3FF"/>
</linearGradient>
<linearGradient id="paint1_linear_23422_98990" x1="27.4481" y1="15.5042" x2="8.24106" y2="15.5042" gradientUnits="userSpaceOnUse">
<stop stop-color="#FFE000"/>
<stop offset="0.4087" stop-color="#FFBD00"/>
<stop offset="0.7754" stop-color="#FFA500"/>
<stop offset="1" stop-color="#FF9C00"/>
</linearGradient>
<linearGradient id="paint2_linear_23422_98990" x1="20.2981" y1="13.7208" x2="2.66547" y2="-4.33911" gradientUnits="userSpaceOnUse">
<stop stop-color="#FF3A44"/>
<stop offset="1" stop-color="#C31162"/>
</linearGradient>
<linearGradient id="paint3_linear_23422_98990" x1="6.38338" y1="30.8635" x2="14.2571" y2="22.799" gradientUnits="userSpaceOnUse">
<stop stop-color="#32A071"/>
<stop offset="0.0685" stop-color="#2DA771"/>
<stop offset="0.4762" stop-color="#15CF74"/>
<stop offset="0.8009" stop-color="#06E775"/>
<stop offset="1" stop-color="#00F076"/>
</linearGradient>
</defs>
</svg>
