<svg width="386" height="158" viewBox="0 0 386 158" fill="none" xmlns="http://www.w3.org/2000/svg">
<rect x="0.664062" width="385.333" height="50" rx="8" fill="#E9ECEF"/>
<rect x="8.66406" y="8" width="34" height="34" rx="5" fill="#F8F9FA"/>
<rect x="52.6641" y="8" width="325.333" height="13" rx="5" fill="#F8F9FA"/>
<rect x="52.6641" y="29" width="96" height="13" rx="5" fill="#F8F9FA"/>
<rect x="0.664062" y="54" width="385.333" height="50" rx="8" fill="#E9ECEF"/>
<rect x="8.66406" y="62" width="34" height="34" rx="5" fill="#F8F9FA"/>
<rect x="52.6641" y="62" width="325.333" height="13" rx="5" fill="#F8F9FA"/>
<rect x="52.6641" y="83" width="96" height="13" rx="5" fill="#F8F9FA"/>
<rect x="0.664062" y="108" width="385.333" height="50" rx="8" fill="#E9ECEF"/>
<rect x="8.66406" y="116" width="34" height="34" rx="5" fill="#F8F9FA"/>
<rect x="52.6641" y="116" width="325.333" height="13" rx="5" fill="#F8F9FA"/>
<rect x="52.6641" y="137" width="96" height="13" rx="5" fill="#F8F9FA"/>
</svg>
