<svg width="83" height="39" viewBox="0 0 83 39" fill="none" xmlns="http://www.w3.org/2000/svg">
<path d="M49.1578 2.83594H53.4887V29.5731H57.3861V33.8855H49.1573V29.5731H49.1578V2.83594Z" fill="#9188FF"/>
<path fill-rule="evenodd" clip-rule="evenodd" d="M21.2404 29.3856C22.4595 27.5937 23.1716 25.432 23.1716 23.1047C23.1716 16.9123 18.1301 11.8924 11.9111 11.8924C5.69213 11.8924 0.650635 16.9123 0.650635 23.1047C0.650635 29.2971 5.69213 34.317 11.9111 34.317C14.2813 34.317 16.4804 33.5879 18.2945 32.3426L19.1176 33.1621L19.1246 33.1552L22.0719 36.0899L27.9426 30.2444L24.8801 27.1951L21.9603 30.1024L21.2404 29.3856ZM11.9111 28.1719C14.7612 28.1719 17.0266 25.8784 17.0266 23.1047C17.0266 20.331 14.7612 18.0375 11.9111 18.0375C9.06108 18.0375 6.79571 20.331 6.79571 23.1047C6.79571 25.8784 9.06108 28.1719 11.9111 28.1719Z" fill="#9188FF"/>
<path fill-rule="evenodd" clip-rule="evenodd" d="M70.8124 34.317C73.6274 34.317 76.2011 33.2885 78.1752 31.5883V33.8855H82.5062V12.7547H78.1752V14.6211C76.2011 12.9209 73.6274 11.8924 70.8124 11.8924C64.5934 11.8924 59.5519 16.9123 59.5519 23.1047C59.5519 29.2971 64.5934 34.317 70.8124 34.317ZM70.8124 28.1719C73.6625 28.1719 75.9279 25.8784 75.9279 23.1047C75.9279 20.331 73.6625 18.0375 70.8124 18.0375C67.9624 18.0375 65.697 20.331 65.697 23.1047C65.697 25.8784 67.9624 28.1719 70.8124 28.1719Z" fill="#9188FF"/>
<path d="M30.967 12.7547H43.0937V17.0672H35.2979V20.9481H39.1948V25.2605H35.2979V29.5733H43.9589V33.8857H30.966V29.5733H30.967V25.2605H30.966V20.9481H30.967V12.7547Z" fill="#9188FF"/>
</svg>
