<svg width="34" height="34" viewBox="0 0 34 34" fill="none" xmlns="http://www.w3.org/2000/svg">
<g clip-path="url(#clip0_28335_109525)">
<circle cx="17" cy="17" r="16.5" fill="#FFDA00" stroke="black"/>
<path d="M26.1638 11.413C25.7357 11.003 25.1914 10.7355 24.6056 10.6473C24.0197 10.559 23.421 10.6543 22.8913 10.92V8.27027C22.8886 8.06681 22.8067 7.87243 22.663 7.72855C22.5193 7.58467 22.3251 7.50266 22.1219 7.5H11.8635C11.6602 7.50266 11.4661 7.58467 11.3224 7.72855C11.1787 7.87243 11.0967 8.06681 11.0941 8.27027V10.92C10.5644 10.6543 9.96567 10.559 9.37983 10.6473C8.79398 10.7355 8.24973 11.003 7.82164 11.413C7.42898 11.8079 7.16179 12.3103 7.0537 12.857C6.94562 13.4036 7.00147 13.97 7.21422 14.485C7.42697 14.9999 7.78713 15.4403 8.24934 15.7508C8.71156 16.0613 9.25518 16.2279 9.81178 16.2297C10.258 16.224 10.6969 16.1151 11.0941 15.9114V16.4865C11.086 17.9193 11.6041 19.3051 12.5497 20.3806C13.4953 21.4561 14.8027 22.1463 16.2233 22.32V24.9595H12.8893C12.6853 24.9595 12.4896 25.0406 12.3453 25.1851C12.201 25.3295 12.1199 25.5254 12.1199 25.7297C12.1199 25.934 12.201 26.1299 12.3453 26.2744C12.4896 26.4188 12.6853 26.5 12.8893 26.5H21.0961C21.3001 26.5 21.4958 26.4188 21.6401 26.2744C21.7844 26.1299 21.8655 25.934 21.8655 25.7297C21.8655 25.5254 21.7844 25.3295 21.6401 25.1851C21.4958 25.0406 21.3001 24.9595 21.0961 24.9595H17.7621V22.32C19.1827 22.1463 20.49 21.4561 21.4357 20.3806C22.3813 19.3051 22.8993 17.9193 22.8913 16.4865V15.9114C23.2885 16.1151 23.7274 16.224 24.1736 16.2297C24.7324 16.2328 25.2795 16.0691 25.7449 15.7595C26.2103 15.4498 26.573 15.0083 26.7866 14.4914C27.0002 13.9744 27.055 13.4054 26.9441 12.8571C26.8331 12.3088 26.5615 11.806 26.1638 11.413ZM10.7145 14.3092C10.4719 14.5427 10.1483 14.6731 9.81178 14.6731C9.47521 14.6731 9.15171 14.5427 8.90904 14.3092C8.7313 14.1297 8.61044 13.9016 8.56161 13.6537C8.51278 13.4057 8.53816 13.1488 8.63456 12.9152C8.73096 12.6816 8.8941 12.4817 9.10352 12.3405C9.31294 12.1993 9.55932 12.1232 9.81178 12.1216C10.0665 12.1182 10.3163 12.1914 10.529 12.3317C10.7416 12.472 10.9073 12.6731 11.0046 12.9087C11.1018 13.1444 11.1262 13.4039 11.0745 13.6536C11.0227 13.9033 10.8974 14.1317 10.7145 14.3092ZM20.0702 19.5676C19.6663 19.9725 19.1865 20.2937 18.6585 20.5129C18.1304 20.7321 17.5643 20.8449 16.9927 20.8449C16.421 20.8449 15.855 20.7321 15.3269 20.5129C14.7989 20.2937 14.3191 19.9725 13.9152 19.5676C13.5105 19.1635 13.1897 18.6832 12.9714 18.1544C12.7531 17.6256 12.6415 17.0587 12.6431 16.4865V9.04054H21.3525V16.4865C21.3557 17.0598 21.2438 17.628 21.0235 18.1572C20.8033 18.6865 20.4791 19.1661 20.0702 19.5676ZM25.0764 14.3092C24.8337 14.5427 24.5102 14.6731 24.1736 14.6731C23.837 14.6731 23.5135 14.5427 23.2709 14.3092C23.0904 14.1301 22.9672 13.9014 22.9168 13.652C22.8664 13.4027 22.8911 13.144 22.9878 12.9088C23.0846 12.6735 23.2489 12.4724 23.46 12.3308C23.6712 12.1892 23.9195 12.1137 24.1736 12.1137C24.4277 12.1137 24.6761 12.1892 24.8872 12.3308C25.0983 12.4724 25.2627 12.6735 25.3594 12.9088C25.4561 13.144 25.4808 13.4027 25.4305 13.652C25.3801 13.9014 25.2568 14.1301 25.0764 14.3092Z" fill="black"/>
<path d="M16.8379 14.9805C16.5315 14.9805 16.2832 14.7321 16.2832 14.4258C16.2832 14.1194 16.5315 13.8711 16.8379 13.8711H16.9707C17.1868 13.8711 17.3574 13.819 17.4824 13.7148C17.61 13.6107 17.6738 13.4688 17.6738 13.2891C17.6738 13.112 17.61 12.9727 17.4824 12.8711C17.3548 12.7669 17.1777 12.7148 16.9512 12.7148C16.7298 12.7148 16.5501 12.7773 16.4121 12.9023C16.1889 13.1003 15.9632 13.3828 15.6648 13.3828H15.4607C15.0483 13.3828 14.6922 13.0322 14.858 12.6545C14.9639 12.4132 15.1278 12.2028 15.3496 12.0234C15.7715 11.6797 16.3288 11.5078 17.0215 11.5078C17.6882 11.5078 18.2168 11.6484 18.6074 11.9297C19.0007 12.2083 19.1973 12.5859 19.1973 13.0625C19.1973 13.3958 19.0879 13.6797 18.8691 13.9141C18.6535 14.1425 18.3759 14.2887 18.0364 14.3527C18.0278 14.3543 18.0215 14.3618 18.0215 14.3706C18.0215 14.3798 18.0285 14.3875 18.0376 14.3886C18.4493 14.4373 18.7773 14.5786 19.0215 14.8125C19.2689 15.0469 19.3926 15.3542 19.3926 15.7344C19.3926 16.2604 19.1712 16.6797 18.7285 16.9922C18.2858 17.3021 17.6908 17.457 16.9434 17.457C16.2611 17.457 15.7077 17.2865 15.2832 16.9453C15.0763 16.7767 14.9167 16.5803 14.8044 16.356C14.6047 15.9572 14.9811 15.5664 15.4271 15.5664H15.6716C15.9577 15.5664 16.1784 15.8361 16.4043 16.0117C16.5449 16.1185 16.7363 16.1719 16.9785 16.1719C17.1973 16.1719 17.373 16.1172 17.5059 16.0078C17.6413 15.8958 17.709 15.7487 17.709 15.5664C17.709 15.3815 17.6426 15.2383 17.5098 15.1367C17.3796 15.0326 17.1973 14.9805 16.9629 14.9805H16.8379Z" fill="black"/>
</g>
<defs>
<clipPath id="clip0_28335_109525">
<rect width="34" height="34" fill="white"/>
</clipPath>
</defs>
</svg>
