<svg width="34" height="34" viewBox="0 0 34 34" fill="none" xmlns="http://www.w3.org/2000/svg">
<g clip-path="url(#clip0_28335_109513)">
<circle cx="17" cy="17" r="16.5" fill="#FFDA00" stroke="black"/>
<path d="M26.1638 11.413C25.7357 11.003 25.1914 10.7355 24.6056 10.6473C24.0197 10.559 23.421 10.6543 22.8913 10.92V8.27027C22.8886 8.06681 22.8067 7.87243 22.663 7.72855C22.5193 7.58467 22.3251 7.50266 22.1219 7.5H11.8635C11.6602 7.50266 11.4661 7.58467 11.3224 7.72855C11.1787 7.87243 11.0967 8.06681 11.0941 8.27027V10.92C10.5644 10.6543 9.96567 10.559 9.37983 10.6473C8.79398 10.7355 8.24973 11.003 7.82164 11.413C7.42898 11.8079 7.16179 12.3103 7.0537 12.857C6.94562 13.4036 7.00147 13.97 7.21422 14.485C7.42697 14.9999 7.78713 15.4403 8.24934 15.7508C8.71156 16.0613 9.25518 16.2279 9.81178 16.2297C10.258 16.224 10.6969 16.1151 11.0941 15.9114V16.4865C11.086 17.9193 11.6041 19.3051 12.5497 20.3806C13.4953 21.4561 14.8027 22.1463 16.2233 22.32V24.9595H12.8893C12.6853 24.9595 12.4896 25.0406 12.3453 25.1851C12.201 25.3295 12.1199 25.5254 12.1199 25.7297C12.1199 25.934 12.201 26.1299 12.3453 26.2744C12.4896 26.4188 12.6853 26.5 12.8893 26.5H21.0961C21.3001 26.5 21.4958 26.4188 21.6401 26.2744C21.7844 26.1299 21.8655 25.934 21.8655 25.7297C21.8655 25.5254 21.7844 25.3295 21.6401 25.1851C21.4958 25.0406 21.3001 24.9595 21.0961 24.9595H17.7621V22.32C19.1827 22.1463 20.49 21.4561 21.4357 20.3806C22.3813 19.3051 22.8993 17.9193 22.8913 16.4865V15.9114C23.2885 16.1151 23.7274 16.224 24.1736 16.2297C24.7324 16.2328 25.2795 16.0691 25.7449 15.7595C26.2103 15.4498 26.573 15.0083 26.7866 14.4914C27.0002 13.9744 27.055 13.4054 26.9441 12.8571C26.8331 12.3088 26.5615 11.806 26.1638 11.413ZM10.7145 14.3092C10.4719 14.5427 10.1483 14.6731 9.81178 14.6731C9.47521 14.6731 9.15171 14.5427 8.90904 14.3092C8.7313 14.1297 8.61044 13.9016 8.56161 13.6537C8.51278 13.4057 8.53816 13.1488 8.63456 12.9152C8.73096 12.6816 8.8941 12.4817 9.10352 12.3405C9.31294 12.1993 9.55932 12.1232 9.81178 12.1216C10.0665 12.1182 10.3163 12.1914 10.529 12.3317C10.7416 12.472 10.9073 12.6731 11.0046 12.9087C11.1018 13.1444 11.1262 13.4039 11.0745 13.6536C11.0227 13.9033 10.8974 14.1317 10.7145 14.3092ZM20.0702 19.5676C19.6663 19.9725 19.1865 20.2937 18.6585 20.5129C18.1304 20.7321 17.5643 20.8449 16.9927 20.8449C16.421 20.8449 15.855 20.7321 15.3269 20.5129C14.7989 20.2937 14.3191 19.9725 13.9152 19.5676C13.5105 19.1635 13.1897 18.6832 12.9714 18.1544C12.7531 17.6256 12.6415 17.0587 12.6431 16.4865V9.04054H21.3525V16.4865C21.3557 17.0598 21.2438 17.628 21.0235 18.1572C20.8033 18.6865 20.4791 19.1661 20.0702 19.5676ZM25.0764 14.3092C24.8337 14.5427 24.5102 14.6731 24.1736 14.6731C23.837 14.6731 23.5135 14.5427 23.2709 14.3092C23.0904 14.1301 22.9672 13.9014 22.9168 13.652C22.8664 13.4027 22.8911 13.144 22.9878 12.9088C23.0846 12.6735 23.2489 12.4724 23.46 12.3308C23.6712 12.1892 23.9195 12.1137 24.1736 12.1137C24.4277 12.1137 24.6761 12.1892 24.8872 12.3308C25.0983 12.4724 25.2627 12.6735 25.3594 12.9088C25.4561 13.144 25.4808 13.4027 25.4305 13.652C25.3801 13.9014 25.2568 14.1301 25.0764 14.3092Z" fill="black"/>
<path d="M17.4746 17.9961C17.0809 17.9961 16.7617 17.6769 16.7617 17.2832V13.6381C16.7617 13.6266 16.7523 13.6172 16.7408 13.6172C16.7366 13.6172 16.7325 13.6184 16.7291 13.6208L16.1227 14.0306C15.7828 14.2604 15.3242 14.0169 15.3242 13.6066C15.3242 13.4373 15.408 13.2789 15.5479 13.1836L16.5031 12.5329C16.669 12.4198 16.8652 12.3594 17.0661 12.3594H17.1875C17.7398 12.3594 18.1875 12.8071 18.1875 13.3594V17.2832C18.1875 17.6769 17.8683 17.9961 17.4746 17.9961Z" fill="black"/>
</g>
<defs>
<clipPath id="clip0_28335_109513">
<rect width="34" height="34" fill="white"/>
</clipPath>
</defs>
</svg>
