<svg width="34" height="34" viewBox="0 0 34 34" fill="none" xmlns="http://www.w3.org/2000/svg">
<g clip-path="url(#clip0_28335_109519)">
<circle cx="17" cy="17" r="16.5" fill="#FFDA00" stroke="black"/>
<path d="M26.1638 11.413C25.7357 11.003 25.1914 10.7355 24.6056 10.6473C24.0197 10.559 23.421 10.6543 22.8913 10.92V8.27027C22.8886 8.06681 22.8067 7.87243 22.663 7.72855C22.5193 7.58467 22.3251 7.50266 22.1219 7.5H11.8635C11.6602 7.50266 11.4661 7.58467 11.3224 7.72855C11.1787 7.87243 11.0967 8.06681 11.0941 8.27027V10.92C10.5644 10.6543 9.96567 10.559 9.37983 10.6473C8.79398 10.7355 8.24973 11.003 7.82164 11.413C7.42898 11.8079 7.16179 12.3103 7.0537 12.857C6.94562 13.4036 7.00147 13.97 7.21422 14.485C7.42697 14.9999 7.78713 15.4403 8.24934 15.7508C8.71156 16.0613 9.25518 16.2279 9.81178 16.2297C10.258 16.224 10.6969 16.1151 11.0941 15.9114V16.4865C11.086 17.9193 11.6041 19.3051 12.5497 20.3806C13.4953 21.4561 14.8027 22.1463 16.2233 22.32V24.9595H12.8893C12.6853 24.9595 12.4896 25.0406 12.3453 25.1851C12.201 25.3295 12.1199 25.5254 12.1199 25.7297C12.1199 25.934 12.201 26.1299 12.3453 26.2744C12.4896 26.4188 12.6853 26.5 12.8893 26.5H21.0961C21.3001 26.5 21.4958 26.4188 21.6401 26.2744C21.7844 26.1299 21.8655 25.934 21.8655 25.7297C21.8655 25.5254 21.7844 25.3295 21.6401 25.1851C21.4958 25.0406 21.3001 24.9595 21.0961 24.9595H17.7621V22.32C19.1827 22.1463 20.49 21.4561 21.4357 20.3806C22.3813 19.3051 22.8993 17.9193 22.8913 16.4865V15.9114C23.2885 16.1151 23.7274 16.224 24.1736 16.2297C24.7324 16.2328 25.2795 16.0691 25.7449 15.7595C26.2103 15.4498 26.573 15.0083 26.7866 14.4914C27.0002 13.9744 27.055 13.4054 26.9441 12.8571C26.8331 12.3088 26.5615 11.806 26.1638 11.413ZM10.7145 14.3092C10.4719 14.5427 10.1483 14.6731 9.81178 14.6731C9.47521 14.6731 9.15171 14.5427 8.90904 14.3092C8.7313 14.1297 8.61044 13.9016 8.56161 13.6537C8.51278 13.4057 8.53816 13.1488 8.63456 12.9152C8.73096 12.6816 8.8941 12.4817 9.10352 12.3405C9.31294 12.1993 9.55932 12.1232 9.81178 12.1216C10.0665 12.1182 10.3163 12.1914 10.529 12.3317C10.7416 12.472 10.9073 12.6731 11.0046 12.9087C11.1018 13.1444 11.1262 13.4039 11.0745 13.6536C11.0227 13.9033 10.8974 14.1317 10.7145 14.3092ZM20.0702 19.5676C19.6663 19.9725 19.1865 20.2937 18.6585 20.5129C18.1304 20.7321 17.5643 20.8449 16.9927 20.8449C16.421 20.8449 15.855 20.7321 15.3269 20.5129C14.7989 20.2937 14.3191 19.9725 13.9152 19.5676C13.5105 19.1635 13.1897 18.6832 12.9714 18.1544C12.7531 17.6256 12.6415 17.0587 12.6431 16.4865V9.04054H21.3525V16.4865C21.3557 17.0598 21.2438 17.628 21.0235 18.1572C20.8033 18.6865 20.4791 19.1661 20.0702 19.5676ZM25.0764 14.3092C24.8337 14.5427 24.5102 14.6731 24.1736 14.6731C23.837 14.6731 23.5135 14.5427 23.2709 14.3092C23.0904 14.1301 22.9672 13.9014 22.9168 13.652C22.8664 13.4027 22.8911 13.144 22.9878 12.9088C23.0846 12.6735 23.2489 12.4724 23.46 12.3308C23.6712 12.1892 23.9195 12.1137 24.1736 12.1137C24.4277 12.1137 24.6761 12.1892 24.8872 12.3308C25.0983 12.4724 25.2627 12.6735 25.3594 12.9088C25.4561 13.144 25.4808 13.4027 25.4305 13.652C25.3801 13.9014 25.2568 14.1301 25.0764 14.3092Z" fill="black"/>
<path d="M15.416 11.7383C15.8197 11.3919 16.3496 11.2188 17.0059 11.2188C17.6413 11.2188 18.1517 11.3737 18.5371 11.6836C18.9251 11.9935 19.1191 12.3971 19.1191 12.8945C19.1191 13.0352 19.097 13.1771 19.0527 13.3203C19.0085 13.4609 18.9564 13.5859 18.8965 13.6953C18.8366 13.8021 18.7546 13.9193 18.6504 14.0469C18.5488 14.1719 18.4616 14.2721 18.3887 14.3477C18.3158 14.4206 18.2207 14.513 18.1035 14.625L16.762 15.8615C16.7581 15.8651 16.7559 15.8702 16.7559 15.8755C16.7559 15.886 16.7644 15.8945 16.7749 15.8945H18.6387C18.9429 15.8945 19.1895 16.1411 19.1895 16.4453C19.1895 16.7495 18.9429 16.9961 18.6387 16.9961H15.5577C15.1904 16.9961 14.8926 16.6983 14.8926 16.3309C14.8926 16.1449 14.9705 15.9674 15.1074 15.8414L17.0918 14.0156C17.3288 13.7891 17.4941 13.5977 17.5879 13.4414C17.6842 13.2826 17.7324 13.1159 17.7324 12.9414C17.7324 12.7591 17.6608 12.6068 17.5176 12.4844C17.3743 12.3594 17.1882 12.2969 16.959 12.2969C16.7168 12.2969 16.5163 12.3724 16.3574 12.5234C16.0947 12.7731 15.8292 13.1211 15.4668 13.1211C15.1044 13.1211 14.7962 12.8188 14.9143 12.4761C15.011 12.1958 15.1765 11.9438 15.416 11.7383Z" fill="black"/>
</g>
<defs>
<clipPath id="clip0_28335_109519">
<rect width="34" height="34" fill="white"/>
</clipPath>
</defs>
</svg>
