<svg width="203" height="202" viewBox="0 0 203 202" fill="none" xmlns="http://www.w3.org/2000/svg">
<path d="M5.42683 0H0.5V4.92683H5.42683V0Z" fill="black"/>
<path d="M10.3537 0H5.42683V4.92683H10.3537V0Z" fill="black"/>
<path d="M15.2805 0H10.3537V4.92683H15.2805V0Z" fill="black"/>
<path d="M20.2073 0H15.2805V4.92683H20.2073V0Z" fill="black"/>
<path d="M25.1341 0H20.2073V4.92683H25.1341V0Z" fill="black"/>
<path d="M30.061 0H25.1341V4.92683H30.061V0Z" fill="black"/>
<path d="M34.9878 0H30.061V4.92683H34.9878V0Z" fill="black"/>
<path d="M44.8415 0H39.9146V4.92683H44.8415V0Z" fill="black"/>
<path d="M54.6951 0H49.7683V4.92683H54.6951V0Z" fill="black"/>
<path d="M64.5488 0H59.622V4.92683H64.5488V0Z" fill="black"/>
<path d="M69.4756 0H64.5488V4.92683H69.4756V0Z" fill="black"/>
<path d="M74.4024 0H69.4756V4.92683H74.4024V0Z" fill="black"/>
<path d="M79.3293 0H74.4024V4.92683H79.3293V0Z" fill="black"/>
<path d="M89.1829 0H84.2561V4.92683H89.1829V0Z" fill="black"/>
<path d="M99.0366 0H94.1098V4.92683H99.0366V0Z" fill="black"/>
<path d="M103.963 0H99.0366V4.92683H103.963V0Z" fill="black"/>
<path d="M138.451 0H133.524V4.92683H138.451V0Z" fill="black"/>
<path d="M148.305 0H143.378V4.92683H148.305V0Z" fill="black"/>
<path d="M153.232 0H148.305V4.92683H153.232V0Z" fill="black"/>
<path d="M158.159 0H153.232V4.92683H158.159V0Z" fill="black"/>
<path d="M163.085 0H158.159V4.92683H163.085V0Z" fill="black"/>
<path d="M172.939 0H168.012V4.92683H172.939V0Z" fill="black"/>
<path d="M177.866 0H172.939V4.92683H177.866V0Z" fill="black"/>
<path d="M182.793 0H177.866V4.92683H182.793V0Z" fill="black"/>
<path d="M187.72 0H182.793V4.92683H187.72V0Z" fill="black"/>
<path d="M192.646 0H187.72V4.92683H192.646V0Z" fill="black"/>
<path d="M197.573 0H192.646V4.92683H197.573V0Z" fill="black"/>
<path d="M202.5 0H197.573V4.92683H202.5V0Z" fill="black"/>
<path d="M5.42683 4.92683H0.5V9.85366H5.42683V4.92683Z" fill="black"/>
<path d="M34.9878 4.92683H30.061V9.85366H34.9878V4.92683Z" fill="black"/>
<path d="M64.5488 4.92683H59.622V9.85366H64.5488V4.92683Z" fill="black"/>
<path d="M74.4024 4.92683H69.4756V9.85366H74.4024V4.92683Z" fill="black"/>
<path d="M79.3293 4.92683H74.4024V9.85366H79.3293V4.92683Z" fill="black"/>
<path d="M89.1829 4.92683H84.2561V9.85366H89.1829V4.92683Z" fill="black"/>
<path d="M94.1098 4.92683H89.1829V9.85366H94.1098V4.92683Z" fill="black"/>
<path d="M103.963 4.92683H99.0366V9.85366H103.963V4.92683Z" fill="black"/>
<path d="M113.817 4.92683H108.89V9.85366H113.817V4.92683Z" fill="black"/>
<path d="M128.598 4.92683H123.671V9.85366H128.598V4.92683Z" fill="black"/>
<path d="M133.524 4.92683H128.598V9.85366H133.524V4.92683Z" fill="black"/>
<path d="M143.378 4.92683H138.451V9.85366H143.378V4.92683Z" fill="black"/>
<path d="M153.232 4.92683H148.305V9.85366H153.232V4.92683Z" fill="black"/>
<path d="M172.939 4.92683H168.012V9.85366H172.939V4.92683Z" fill="black"/>
<path d="M202.5 4.92683H197.573V9.85366H202.5V4.92683Z" fill="black"/>
<path d="M5.42683 9.85366H0.5V14.7805H5.42683V9.85366Z" fill="black"/>
<path d="M15.2805 9.85366H10.3537V14.7805H15.2805V9.85366Z" fill="black"/>
<path d="M20.2073 9.85366H15.2805V14.7805H20.2073V9.85366Z" fill="black"/>
<path d="M25.1341 9.85366H20.2073V14.7805H25.1341V9.85366Z" fill="black"/>
<path d="M34.9878 9.85366H30.061V14.7805H34.9878V9.85366Z" fill="black"/>
<path d="M54.6951 9.85366H49.7683V14.7805H54.6951V9.85366Z" fill="black"/>
<path d="M59.622 9.85366H54.6951V14.7805H59.622V9.85366Z" fill="black"/>
<path d="M64.5488 9.85366H59.622V14.7805H64.5488V9.85366Z" fill="black"/>
<path d="M69.4756 9.85366H64.5488V14.7805H69.4756V9.85366Z" fill="black"/>
<path d="M84.2561 9.85366H79.3293V14.7805H84.2561V9.85366Z" fill="black"/>
<path d="M89.1829 9.85366H84.2561V14.7805H89.1829V9.85366Z" fill="black"/>
<path d="M94.1098 9.85366H89.1829V14.7805H94.1098V9.85366Z" fill="black"/>
<path d="M103.963 9.85366H99.0366V14.7805H103.963V9.85366Z" fill="black"/>
<path d="M118.744 9.85366H113.817V14.7805H118.744V9.85366Z" fill="black"/>
<path d="M123.671 9.85366H118.744V14.7805H123.671V9.85366Z" fill="black"/>
<path d="M133.524 9.85366H128.598V14.7805H133.524V9.85366Z" fill="black"/>
<path d="M138.451 9.85366H133.524V14.7805H138.451V9.85366Z" fill="black"/>
<path d="M143.378 9.85366H138.451V14.7805H143.378V9.85366Z" fill="black"/>
<path d="M153.232 9.85366H148.305V14.7805H153.232V9.85366Z" fill="black"/>
<path d="M158.159 9.85366H153.232V14.7805H158.159V9.85366Z" fill="black"/>
<path d="M172.939 9.85366H168.012V14.7805H172.939V9.85366Z" fill="black"/>
<path d="M182.793 9.85366H177.866V14.7805H182.793V9.85366Z" fill="black"/>
<path d="M187.72 9.85366H182.793V14.7805H187.72V9.85366Z" fill="black"/>
<path d="M192.646 9.85366H187.72V14.7805H192.646V9.85366Z" fill="black"/>
<path d="M202.5 9.85366H197.573V14.7805H202.5V9.85366Z" fill="black"/>
<path d="M5.42683 14.7805H0.5V19.7073H5.42683V14.7805Z" fill="black"/>
<path d="M15.2805 14.7805H10.3537V19.7073H15.2805V14.7805Z" fill="black"/>
<path d="M20.2073 14.7805H15.2805V19.7073H20.2073V14.7805Z" fill="black"/>
<path d="M25.1341 14.7805H20.2073V19.7073H25.1341V14.7805Z" fill="black"/>
<path d="M34.9878 14.7805H30.061V19.7073H34.9878V14.7805Z" fill="black"/>
<path d="M49.7683 14.7805H44.8415V19.7073H49.7683V14.7805Z" fill="black"/>
<path d="M54.6951 14.7805H49.7683V19.7073H54.6951V14.7805Z" fill="black"/>
<path d="M59.622 14.7805H54.6951V19.7073H59.622V14.7805Z" fill="black"/>
<path d="M74.4024 14.7805H69.4756V19.7073H74.4024V14.7805Z" fill="black"/>
<path d="M99.0366 14.7805H94.1098V19.7073H99.0366V14.7805Z" fill="black"/>
<path d="M108.89 14.7805H103.963V19.7073H108.89V14.7805Z" fill="black"/>
<path d="M123.671 14.7805H118.744V19.7073H123.671V14.7805Z" fill="black"/>
<path d="M128.598 14.7805H123.671V19.7073H128.598V14.7805Z" fill="black"/>
<path d="M143.378 14.7805H138.451V19.7073H143.378V14.7805Z" fill="black"/>
<path d="M153.232 14.7805H148.305V19.7073H153.232V14.7805Z" fill="black"/>
<path d="M158.159 14.7805H153.232V19.7073H158.159V14.7805Z" fill="black"/>
<path d="M163.085 14.7805H158.159V19.7073H163.085V14.7805Z" fill="black"/>
<path d="M172.939 14.7805H168.012V19.7073H172.939V14.7805Z" fill="black"/>
<path d="M182.793 14.7805H177.866V19.7073H182.793V14.7805Z" fill="black"/>
<path d="M187.72 14.7805H182.793V19.7073H187.72V14.7805Z" fill="black"/>
<path d="M192.646 14.7805H187.72V19.7073H192.646V14.7805Z" fill="black"/>
<path d="M202.5 14.7805H197.573V19.7073H202.5V14.7805Z" fill="black"/>
<path d="M5.42683 19.7073H0.5V24.6341H5.42683V19.7073Z" fill="black"/>
<path d="M15.2805 19.7073H10.3537V24.6341H15.2805V19.7073Z" fill="black"/>
<path d="M20.2073 19.7073H15.2805V24.6341H20.2073V19.7073Z" fill="black"/>
<path d="M25.1341 19.7073H20.2073V24.6341H25.1341V19.7073Z" fill="black"/>
<path d="M34.9878 19.7073H30.061V24.6341H34.9878V19.7073Z" fill="black"/>
<path d="M49.7683 19.7073H44.8415V24.6341H49.7683V19.7073Z" fill="black"/>
<path d="M59.622 19.7073H54.6951V24.6341H59.622V19.7073Z" fill="black"/>
<path d="M74.4024 19.7073H69.4756V24.6341H74.4024V19.7073Z" fill="black"/>
<path d="M79.3293 19.7073L74.4024 19.7073V24.6341H79.3293V19.7073Z" fill="black"/>
<path d="M84.2561 19.7073H79.3293V24.6341H84.2561V19.7073Z" fill="black"/>
<path d="M99.0366 19.7073H94.1098V24.6341H99.0366V19.7073Z" fill="black"/>
<path d="M103.963 19.7073H99.0366V24.6341H103.963V19.7073Z" fill="black"/>
<path d="M108.89 19.7073H103.963V24.6341H108.89V19.7073Z" fill="black"/>
<path d="M123.671 19.7073H118.744V24.6341H123.671V19.7073Z" fill="black"/>
<path d="M143.378 19.7073H138.451V24.6341H143.378V19.7073Z" fill="black"/>
<path d="M153.232 19.7073H148.305V24.6341H153.232V19.7073Z" fill="black"/>
<path d="M163.085 19.7073H158.159V24.6341H163.085V19.7073Z" fill="black"/>
<path d="M172.939 19.7073H168.012V24.6341H172.939V19.7073Z" fill="black"/>
<path d="M182.793 19.7073H177.866V24.6341H182.793V19.7073Z" fill="black"/>
<path d="M187.72 19.7073H182.793V24.6341H187.72V19.7073Z" fill="black"/>
<path d="M192.646 19.7073H187.72V24.6341H192.646V19.7073Z" fill="black"/>
<path d="M202.5 19.7073H197.573V24.6341H202.5V19.7073Z" fill="black"/>
<path d="M5.42683 24.6341H0.5V29.561H5.42683V24.6341Z" fill="black"/>
<path d="M34.9878 24.6341H30.061V29.561H34.9878V24.6341Z" fill="black"/>
<path d="M59.622 24.6341H54.6951V29.561H59.622V24.6341Z" fill="black"/>
<path d="M84.2561 24.6341H79.3293V29.561H84.2561V24.6341Z" fill="black"/>
<path d="M89.1829 24.6341H84.2561V29.561H89.1829V24.6341Z" fill="black"/>
<path d="M94.1098 24.6341H89.1829V29.561H94.1098V24.6341Z" fill="black"/>
<path d="M103.963 24.6341H99.0366V29.561H103.963V24.6341Z" fill="black"/>
<path d="M108.89 24.6341H103.963V29.561H108.89V24.6341Z" fill="black"/>
<path d="M113.817 24.6341H108.89V29.561H113.817V24.6341Z" fill="black"/>
<path d="M118.744 24.6341H113.817V29.561H118.744V24.6341Z" fill="black"/>
<path d="M133.524 24.6341H128.598V29.561H133.524V24.6341Z" fill="black"/>
<path d="M143.378 24.6341H138.451V29.561H143.378V24.6341Z" fill="black"/>
<path d="M158.159 24.6341H153.232V29.561H158.159V24.6341Z" fill="black"/>
<path d="M163.085 24.6341H158.159V29.561H163.085V24.6341Z" fill="black"/>
<path d="M172.939 24.6341H168.012V29.561H172.939V24.6341Z" fill="black"/>
<path d="M202.5 24.6341H197.573V29.561H202.5V24.6341Z" fill="black"/>
<path d="M5.42683 29.561H0.5V34.4878H5.42683V29.561Z" fill="black"/>
<path d="M10.3537 29.561H5.42683V34.4878H10.3537V29.561Z" fill="black"/>
<path d="M15.2805 29.561H10.3537V34.4878H15.2805V29.561Z" fill="black"/>
<path d="M20.2073 29.561H15.2805V34.4878H20.2073V29.561Z" fill="black"/>
<path d="M25.1341 29.561H20.2073V34.4878H25.1341V29.561Z" fill="black"/>
<path d="M30.061 29.561H25.1341V34.4878H30.061V29.561Z" fill="black"/>
<path d="M34.9878 29.561H30.061V34.4878H34.9878V29.561Z" fill="black"/>
<path d="M44.8415 29.561H39.9146V34.4878H44.8415V29.561Z" fill="black"/>
<path d="M54.6951 29.561H49.7683V34.4878H54.6951V29.561Z" fill="black"/>
<path d="M64.5488 29.561H59.622V34.4878H64.5488V29.561Z" fill="black"/>
<path d="M74.4024 29.561H69.4756V34.4878H74.4024V29.561Z" fill="black"/>
<path d="M84.2561 29.561H79.3293V34.4878H84.2561V29.561Z" fill="black"/>
<path d="M94.1098 29.561H89.1829V34.4878H94.1098V29.561Z" fill="black"/>
<path d="M103.963 29.561H99.0366V34.4878H103.963V29.561Z" fill="black"/>
<path d="M113.817 29.561H108.89V34.4878H113.817V29.561Z" fill="black"/>
<path d="M123.671 29.561H118.744V34.4878H123.671V29.561Z" fill="black"/>
<path d="M133.524 29.561H128.598V34.4878H133.524V29.561Z" fill="black"/>
<path d="M143.378 29.561H138.451V34.4878H143.378V29.561Z" fill="black"/>
<path d="M153.232 29.561H148.305V34.4878H153.232V29.561Z" fill="black"/>
<path d="M163.085 29.561H158.159V34.4878H163.085V29.561Z" fill="black"/>
<path d="M172.939 29.561H168.012V34.4878H172.939V29.561Z" fill="black"/>
<path d="M177.866 29.561H172.939V34.4878H177.866V29.561Z" fill="black"/>
<path d="M182.793 29.561H177.866V34.4878H182.793V29.561Z" fill="black"/>
<path d="M187.72 29.561H182.793V34.4878H187.72V29.561Z" fill="black"/>
<path d="M192.646 29.561H187.72V34.4878H192.646V29.561Z" fill="black"/>
<path d="M197.573 29.561H192.646V34.4878H197.573V29.561Z" fill="black"/>
<path d="M202.5 29.561H197.573V34.4878H202.5V29.561Z" fill="black"/>
<path d="M64.5488 34.4878H59.622V39.4146H64.5488V34.4878Z" fill="black"/>
<path d="M79.3293 34.4878H74.4024V39.4146H79.3293V34.4878Z" fill="black"/>
<path d="M89.1829 34.4878H84.2561V39.4146H89.1829V34.4878Z" fill="black"/>
<path d="M103.963 34.4878H99.0366V39.4146H103.963V34.4878Z" fill="black"/>
<path d="M118.744 34.4878H113.817V39.4146H118.744V34.4878Z" fill="black"/>
<path d="M123.671 34.4878H118.744V39.4146H123.671V34.4878Z" fill="black"/>
<path d="M133.524 34.4878H128.598V39.4146H133.524V34.4878Z" fill="black"/>
<path d="M138.451 34.4878H133.524V39.4146H138.451V34.4878Z" fill="black"/>
<path d="M143.378 34.4878H138.451V39.4146H143.378V34.4878Z" fill="black"/>
<path d="M148.305 34.4878H143.378V39.4146H148.305V34.4878Z" fill="black"/>
<path d="M153.232 34.4878H148.305V39.4146H153.232V34.4878Z" fill="black"/>
<path d="M10.3537 39.4146H5.42683V44.3415H10.3537V39.4146Z" fill="black"/>
<path d="M15.2805 39.4146H10.3537V44.3415H15.2805V39.4146Z" fill="black"/>
<path d="M20.2073 39.4146H15.2805V44.3415H20.2073V39.4146Z" fill="black"/>
<path d="M34.9878 39.4146H30.061V44.3415H34.9878V39.4146Z" fill="black"/>
<path d="M39.9146 39.4146H34.9878V44.3415H39.9146V39.4146Z" fill="black"/>
<path d="M44.8415 39.4146H39.9146V44.3415H44.8415V39.4146Z" fill="black"/>
<path d="M49.7683 39.4146H44.8415V44.3415H49.7683V39.4146Z" fill="black"/>
<path d="M54.6951 39.4146H49.7683V44.3415H54.6951V39.4146Z" fill="black"/>
<path d="M99.0366 39.4146H94.1098V44.3415H99.0366V39.4146Z" fill="black"/>
<path d="M133.524 39.4146H128.598V44.3415H133.524V39.4146Z" fill="black"/>
<path d="M138.451 39.4146H133.524V44.3415H138.451V39.4146Z" fill="black"/>
<path d="M153.232 39.4146H148.305V44.3415H153.232V39.4146Z" fill="black"/>
<path d="M163.085 39.4146H158.159V44.3415H163.085V39.4146Z" fill="black"/>
<path d="M168.012 39.4146H163.085V44.3415H168.012V39.4146Z" fill="black"/>
<path d="M202.5 39.4146H197.573V44.3415H202.5V39.4146Z" fill="black"/>
<path d="M5.42683 44.3415H0.5V49.2683H5.42683V44.3415Z" fill="black"/>
<path d="M10.3537 44.3415H5.42683V49.2683H10.3537V44.3415Z" fill="black"/>
<path d="M15.2805 44.3415H10.3537V49.2683H15.2805V44.3415Z" fill="black"/>
<path d="M39.9146 44.3415H34.9878V49.2683H39.9146V44.3415Z" fill="black"/>
<path d="M44.8415 44.3415H39.9146V49.2683H44.8415V44.3415Z" fill="black"/>
<path d="M49.7683 44.3415H44.8415V49.2683H49.7683V44.3415Z" fill="black"/>
<path d="M59.622 44.3415H54.6951V49.2683H59.622V44.3415Z" fill="black"/>
<path d="M74.4024 44.3415H69.4756V49.2683H74.4024V44.3415Z" fill="black"/>
<path d="M84.2561 44.3415H79.3293V49.2683H84.2561V44.3415Z" fill="black"/>
<path d="M94.1098 44.3415H89.1829V49.2683H94.1098V44.3415Z" fill="black"/>
<path d="M99.0366 44.3415H94.1098V49.2683H99.0366V44.3415Z" fill="black"/>
<path d="M103.963 44.3415H99.0366V49.2683H103.963V44.3415Z" fill="black"/>
<path d="M123.671 44.3415H118.744V49.2683H123.671V44.3415Z" fill="black"/>
<path d="M138.451 44.3415H133.524V49.2683H138.451V44.3415Z" fill="black"/>
<path d="M148.305 44.3415H143.378V49.2683H148.305V44.3415Z" fill="black"/>
<path d="M158.159 44.3415H153.232V49.2683H158.159V44.3415Z" fill="black"/>
<path d="M168.012 44.3415H163.085V49.2683H168.012V44.3415Z" fill="black"/>
<path d="M177.866 44.3415H172.939V49.2683H177.866V44.3415Z" fill="black"/>
<path d="M197.573 44.3415H192.646V49.2683H197.573V44.3415Z" fill="black"/>
<path d="M15.2805 49.2683H10.3537V54.1951H15.2805V49.2683Z" fill="black"/>
<path d="M25.1341 49.2683H20.2073V54.1951H25.1341V49.2683Z" fill="black"/>
<path d="M34.9878 49.2683H30.061V54.1951H34.9878V49.2683Z" fill="black"/>
<path d="M49.7683 49.2683H44.8415V54.1951H49.7683V49.2683Z" fill="black"/>
<path d="M69.4756 49.2683H64.5488V54.1951H69.4756V49.2683Z" fill="black"/>
<path d="M74.4024 49.2683H69.4756V54.1951H74.4024V49.2683Z" fill="black"/>
<path d="M84.2561 49.2683H79.3293V54.1951H84.2561V49.2683Z" fill="black"/>
<path d="M89.1829 49.2683H84.2561V54.1951H89.1829V49.2683Z" fill="black"/>
<path d="M99.0366 49.2683H94.1098V54.1951H99.0366V49.2683Z" fill="black"/>
<path d="M108.89 49.2683H103.963V54.1951H108.89V49.2683Z" fill="black"/>
<path d="M113.817 49.2683H108.89V54.1951H113.817V49.2683Z" fill="black"/>
<path d="M123.671 49.2683H118.744V54.1951H123.671V49.2683Z" fill="black"/>
<path d="M128.598 49.2683H123.671V54.1951H128.598V49.2683Z" fill="black"/>
<path d="M133.524 49.2683H128.598V54.1951H133.524V49.2683Z" fill="black"/>
<path d="M138.451 49.2683H133.524V54.1951H138.451V49.2683Z" fill="black"/>
<path d="M143.378 49.2683H138.451V54.1951H143.378V49.2683Z" fill="black"/>
<path d="M153.232 49.2683H148.305V54.1951H153.232V49.2683Z" fill="black"/>
<path d="M158.159 49.2683H153.232V54.1951H158.159V49.2683Z" fill="black"/>
<path d="M163.085 49.2683H158.159V54.1951H163.085V49.2683Z" fill="black"/>
<path d="M177.866 49.2683H172.939V54.1951H177.866V49.2683Z" fill="black"/>
<path d="M187.72 49.2683H182.793V54.1951H187.72V49.2683Z" fill="black"/>
<path d="M192.646 49.2683H187.72V54.1951H192.646V49.2683Z" fill="black"/>
<path d="M15.2805 54.1951H10.3537V59.122H15.2805V54.1951Z" fill="black"/>
<path d="M20.2073 54.1951H15.2805V59.122H20.2073L20.2073 54.1951Z" fill="black"/>
<path d="M25.1341 54.1951H20.2073L20.2073 59.122H25.1341V54.1951Z" fill="black"/>
<path d="M30.061 54.1951H25.1341V59.122H30.061V54.1951Z" fill="black"/>
<path d="M39.9146 54.1951H34.9878V59.122H39.9146V54.1951Z" fill="black"/>
<path d="M54.6951 54.1951H49.7683V59.122H54.6951V54.1951Z" fill="black"/>
<path d="M69.4756 54.1951H64.5488V59.122H69.4756V54.1951Z" fill="black"/>
<path d="M74.4024 54.1951H69.4756V59.122H74.4024V54.1951Z" fill="black"/>
<path d="M79.3293 54.1951H74.4024V59.122H79.3293V54.1951Z" fill="black"/>
<path d="M84.2561 54.1951H79.3293V59.122H84.2561V54.1951Z" fill="black"/>
<path d="M103.963 54.1951H99.0366V59.122H103.963V54.1951Z" fill="black"/>
<path d="M113.817 54.1951H108.89V59.122H113.817V54.1951Z" fill="black"/>
<path d="M118.744 54.1951H113.817V59.122H118.744V54.1951Z" fill="black"/>
<path d="M123.671 54.1951H118.744V59.122H123.671V54.1951Z" fill="black"/>
<path d="M128.598 54.1951H123.671V59.122H128.598V54.1951Z" fill="black"/>
<path d="M163.085 54.1951H158.159V59.122H163.085V54.1951Z" fill="black"/>
<path d="M172.939 54.1951H168.012V59.122H172.939V54.1951Z" fill="black"/>
<path d="M177.866 54.1951H172.939V59.122H177.866V54.1951Z" fill="black"/>
<path d="M182.793 54.1951H177.866V59.122H182.793V54.1951Z" fill="black"/>
<path d="M187.72 54.1951H182.793V59.122H187.72V54.1951Z" fill="black"/>
<path d="M5.42683 59.122H0.5V64.0488H5.42683V59.122Z" fill="black"/>
<path d="M25.1341 59.122H20.2073L20.2073 64.0488H25.1341V59.122Z" fill="black"/>
<path d="M30.061 59.122H25.1341V64.0488H30.061V59.122Z" fill="black"/>
<path d="M34.9878 59.122H30.061V64.0488H34.9878V59.122Z" fill="black"/>
<path d="M44.8415 59.122H39.9146V64.0488H44.8415V59.122Z" fill="black"/>
<path d="M49.7683 59.122H44.8415V64.0488H49.7683V59.122Z" fill="black"/>
<path d="M64.5488 59.122H59.622V64.0488H64.5488V59.122Z" fill="black"/>
<path d="M74.4024 59.122H69.4756V64.0488H74.4024V59.122Z" fill="black"/>
<path d="M94.1098 59.122H89.1829V64.0488H94.1098V59.122Z" fill="black"/>
<path d="M99.0366 59.122H94.1098V64.0488H99.0366V59.122Z" fill="black"/>
<path d="M108.89 59.122H103.963V64.0488H108.89V59.122Z" fill="black"/>
<path d="M113.817 59.122H108.89V64.0488H113.817V59.122Z" fill="black"/>
<path d="M128.598 59.122H123.671V64.0488H128.598V59.122Z" fill="black"/>
<path d="M148.305 59.122H143.378V64.0488H148.305V59.122Z" fill="black"/>
<path d="M153.232 59.122H148.305V64.0488H153.232V59.122Z" fill="black"/>
<path d="M158.159 59.122H153.232V64.0488H158.159V59.122Z" fill="black"/>
<path d="M168.012 59.122H163.085V64.0488H168.012V59.122Z" fill="black"/>
<path d="M177.866 59.122H172.939V64.0488H177.866V59.122Z" fill="black"/>
<path d="M197.573 59.122H192.646V64.0488H197.573V59.122Z" fill="black"/>
<path d="M202.5 59.122H197.573V64.0488H202.5V59.122Z" fill="black"/>
<path d="M10.3537 64.0488H5.42683V68.9756H10.3537V64.0488Z" fill="black"/>
<path d="M15.2805 64.0488H10.3537V68.9756H15.2805V64.0488Z" fill="black"/>
<path d="M30.061 64.0488H25.1341V68.9756H30.061V64.0488Z" fill="black"/>
<path d="M44.8415 64.0488H39.9146V68.9756H44.8415V64.0488Z" fill="black"/>
<path d="M69.4756 64.0488H64.5488V68.9756H69.4756V64.0488Z" fill="black"/>
<path d="M79.3293 64.0488H74.4024V68.9756H79.3293V64.0488Z" fill="black"/>
<path d="M84.2561 64.0488H79.3293V68.9756H84.2561V64.0488Z" fill="black"/>
<path d="M94.1098 64.0488H89.1829V68.9756H94.1098V64.0488Z" fill="black"/>
<path d="M103.963 64.0488H99.0366V68.9756H103.963V64.0488Z" fill="black"/>
<path d="M108.89 64.0488H103.963V68.9756H108.89V64.0488Z" fill="black"/>
<path d="M113.817 64.0488H108.89V68.9756H113.817V64.0488Z" fill="black"/>
<path d="M118.744 64.0488H113.817V68.9756H118.744V64.0488Z" fill="black"/>
<path d="M133.524 64.0488H128.598V68.9756H133.524V64.0488Z" fill="black"/>
<path d="M143.378 64.0488H138.451V68.9756H143.378V64.0488Z" fill="black"/>
<path d="M153.232 64.0488H148.305V68.9756H153.232V64.0488Z" fill="black"/>
<path d="M168.012 64.0488H163.085V68.9756H168.012V64.0488Z" fill="black"/>
<path d="M172.939 64.0488H168.012V68.9756H172.939V64.0488Z" fill="black"/>
<path d="M177.866 64.0488H172.939V68.9756H177.866V64.0488Z" fill="black"/>
<path d="M182.793 64.0488H177.866V68.9756H182.793V64.0488Z" fill="black"/>
<path d="M34.9878 68.9756H30.061V73.9024H34.9878V68.9756Z" fill="black"/>
<path d="M44.8415 68.9756H39.9146V73.9024H44.8415V68.9756Z" fill="black"/>
<path d="M49.7683 68.9756H44.8415V73.9024H49.7683V68.9756Z" fill="black"/>
<path d="M59.622 68.9756H54.6951V73.9024H59.622V68.9756Z" fill="black"/>
<path d="M64.5488 68.9756H59.622V73.9024H64.5488V68.9756Z" fill="black"/>
<path d="M69.4756 68.9756H64.5488V73.9024H69.4756V68.9756Z" fill="black"/>
<path d="M89.1829 68.9756H84.2561V73.9024H89.1829V68.9756Z" fill="black"/>
<path d="M94.1098 68.9756H89.1829V73.9024H94.1098V68.9756Z" fill="black"/>
<path d="M113.817 68.9756H108.89V73.9024H113.817V68.9756Z" fill="black"/>
<path d="M128.598 68.9756H123.671V73.9024H128.598V68.9756Z" fill="black"/>
<path d="M133.524 68.9756H128.598V73.9024H133.524V68.9756Z" fill="black"/>
<path d="M138.451 68.9756H133.524V73.9024H138.451V68.9756Z" fill="black"/>
<path d="M153.232 68.9756H148.305V73.9024H153.232V68.9756Z" fill="black"/>
<path d="M158.159 68.9756H153.232V73.9024H158.159V68.9756Z" fill="black"/>
<path d="M177.866 68.9756H172.939V73.9024H177.866V68.9756Z" fill="black"/>
<path d="M202.5 68.9756H197.573V73.9024H202.5V68.9756Z" fill="black"/>
<path d="M20.2073 73.9024H15.2805V78.8293H20.2073V73.9024Z" fill="black"/>
<path d="M30.061 73.9024H25.1341V78.8293H30.061V73.9024Z" fill="black"/>
<path d="M39.9146 73.9024H34.9878V78.8293H39.9146V73.9024Z" fill="black"/>
<path d="M44.8415 73.9024H39.9146V78.8293H44.8415V73.9024Z" fill="black"/>
<path d="M49.7683 73.9024H44.8415V78.8293H49.7683V73.9024Z" fill="black"/>
<path d="M59.622 73.9024H54.6951V78.8293H59.622V73.9024Z" fill="black"/>
<path d="M94.1098 73.9024H89.1829V78.8293H94.1098V73.9024Z" fill="black"/>
<path d="M99.0366 73.9024H94.1098V78.8293H99.0366V73.9024Z" fill="black"/>
<path d="M123.671 73.9024H118.744V78.8293H123.671V73.9024Z" fill="black"/>
<path d="M128.598 73.9024H123.671V78.8293H128.598V73.9024Z" fill="black"/>
<path d="M133.524 73.9024H128.598V78.8293H133.524V73.9024Z" fill="black"/>
<path d="M138.451 73.9024H133.524V78.8293H138.451V73.9024Z" fill="black"/>
<path d="M143.378 73.9024H138.451V78.8293H143.378V73.9024Z" fill="black"/>
<path d="M148.305 73.9024H143.378V78.8293H148.305V73.9024Z" fill="black"/>
<path d="M168.012 73.9024H163.085V78.8293H168.012V73.9024Z" fill="black"/>
<path d="M172.939 73.9024H168.012V78.8293H172.939V73.9024Z" fill="black"/>
<path d="M182.793 73.9024H177.866V78.8293H182.793V73.9024Z" fill="black"/>
<path d="M202.5 73.9024H197.573V78.8293H202.5V73.9024Z" fill="black"/>
<path d="M20.2073 78.8293H15.2805V83.7561H20.2073V78.8293Z" fill="black"/>
<path d="M25.1341 78.8293H20.2073V83.7561H25.1341V78.8293Z" fill="black"/>
<path d="M34.9878 78.8293H30.061V83.7561H34.9878V78.8293Z" fill="black"/>
<path d="M44.8415 78.8293H39.9146V83.7561H44.8415V78.8293Z" fill="black"/>
<path d="M84.2561 78.8293H79.3293V83.7561H84.2561V78.8293Z" fill="black"/>
<path d="M103.963 78.8293H99.0366V83.7561H103.963V78.8293Z" fill="black"/>
<path d="M108.89 78.8293H103.963V83.7561H108.89V78.8293Z" fill="black"/>
<path d="M113.817 78.8293H108.89V83.7561H113.817V78.8293Z" fill="black"/>
<path d="M123.671 78.8293H118.744V83.7561H123.671V78.8293Z" fill="black"/>
<path d="M128.598 78.8293H123.671V83.7561H128.598V78.8293Z" fill="black"/>
<path d="M133.524 78.8293H128.598V83.7561H133.524V78.8293Z" fill="black"/>
<path d="M143.378 78.8293H138.451V83.7561H143.378V78.8293Z" fill="black"/>
<path d="M153.232 78.8293H148.305V83.7561H153.232V78.8293Z" fill="black"/>
<path d="M158.159 78.8293H153.232V83.7561H158.159V78.8293Z" fill="black"/>
<path d="M168.012 78.8293H163.085V83.7561H168.012V78.8293Z" fill="black"/>
<path d="M177.866 78.8293H172.939V83.7561H177.866V78.8293Z" fill="black"/>
<path d="M182.793 78.8293H177.866V83.7561H182.793V78.8293Z" fill="black"/>
<path d="M192.646 78.8293H187.72V83.7561H192.646V78.8293Z" fill="black"/>
<path d="M197.573 78.8293H192.646V83.7561H197.573V78.8293Z" fill="black"/>
<path d="M5.42683 83.7561H0.5V88.6829H5.42683V83.7561Z" fill="black"/>
<path d="M25.1341 83.7561H20.2073L20.2073 88.6829H25.1341V83.7561Z" fill="black"/>
<path d="M30.061 83.7561H25.1341V88.6829H30.061V83.7561Z" fill="black"/>
<path d="M44.8415 83.7561H39.9146V88.6829H44.8415V83.7561Z" fill="black"/>
<path d="M49.7683 83.7561H44.8415V88.6829H49.7683V83.7561Z" fill="black"/>
<path d="M84.2561 83.7561H79.3293V88.6829H84.2561V83.7561Z" fill="black"/>
<path d="M89.1829 83.7561H84.2561V88.6829H89.1829V83.7561Z" fill="black"/>
<path d="M99.0366 83.7561H94.1098V88.6829H99.0366V83.7561Z" fill="black"/>
<path d="M113.817 83.7561H108.89V88.6829H113.817V83.7561Z" fill="black"/>
<path d="M128.598 83.7561H123.671V88.6829H128.598V83.7561Z" fill="black"/>
<path d="M133.524 83.7561H128.598V88.6829H133.524V83.7561Z" fill="black"/>
<path d="M143.378 83.7561H138.451V88.6829H143.378V83.7561Z" fill="black"/>
<path d="M153.232 83.7561H148.305V88.6829H153.232V83.7561Z" fill="black"/>
<path d="M163.085 83.7561H158.159V88.6829H163.085V83.7561Z" fill="black"/>
<path d="M182.793 83.7561H177.866V88.6829H182.793V83.7561Z" fill="black"/>
<path d="M187.72 83.7561H182.793V88.6829H187.72V83.7561Z" fill="black"/>
<path d="M202.5 83.7561H197.573V88.6829H202.5V83.7561Z" fill="black"/>
<path d="M10.3537 88.6829H5.42683V93.6098H10.3537V88.6829Z" fill="black"/>
<path d="M20.2073 88.6829H15.2805V93.6098H20.2073L20.2073 88.6829Z" fill="black"/>
<path d="M34.9878 88.6829H30.061V93.6098H34.9878V88.6829Z" fill="black"/>
<path d="M54.6951 88.6829H49.7683V93.6098H54.6951V88.6829Z" fill="black"/>
<path d="M69.4756 88.6829H64.5488V93.6098H69.4756V88.6829Z" fill="black"/>
<path d="M74.4024 88.6829H69.4756V93.6098H74.4024V88.6829Z" fill="black"/>
<path d="M79.3293 88.6829H74.4024V93.6098H79.3293V88.6829Z" fill="black"/>
<path d="M89.1829 88.6829H84.2561V93.6098H89.1829V88.6829Z" fill="black"/>
<path d="M99.0366 88.6829H94.1098V93.6098H99.0366V88.6829Z" fill="black"/>
<path d="M108.89 88.6829H103.963V93.6098H108.89V88.6829Z" fill="black"/>
<path d="M113.817 88.6829H108.89V93.6098H113.817V88.6829Z" fill="black"/>
<path d="M118.744 88.6829H113.817V93.6098H118.744V88.6829Z" fill="black"/>
<path d="M138.451 88.6829H133.524V93.6098H138.451V88.6829Z" fill="black"/>
<path d="M148.305 88.6829H143.378V93.6098H148.305V88.6829Z" fill="black"/>
<path d="M153.232 88.6829H148.305V93.6098H153.232V88.6829Z" fill="black"/>
<path d="M168.012 88.6829H163.085V93.6098H168.012V88.6829Z" fill="black"/>
<path d="M172.939 88.6829H168.012V93.6098H172.939V88.6829Z" fill="black"/>
<path d="M182.793 88.6829H177.866V93.6098H182.793V88.6829Z" fill="black"/>
<path d="M192.646 88.6829H187.72V93.6098H192.646V88.6829Z" fill="black"/>
<path d="M202.5 88.6829H197.573V93.6098H202.5V88.6829Z" fill="black"/>
<path d="M20.2073 93.6098H15.2805V98.5366H20.2073V93.6098Z" fill="black"/>
<path d="M25.1341 93.6098H20.2073V98.5366H25.1341V93.6098Z" fill="black"/>
<path d="M49.7683 93.6098H44.8415V98.5366H49.7683V93.6098Z" fill="black"/>
<path d="M64.5488 93.6098H59.622V98.5366H64.5488V93.6098Z" fill="black"/>
<path d="M74.4024 93.6098H69.4756V98.5366H74.4024V93.6098Z" fill="black"/>
<path d="M79.3293 93.6098H74.4024V98.5366H79.3293V93.6098Z" fill="black"/>
<path d="M84.2561 93.6098H79.3293V98.5366H84.2561V93.6098Z" fill="black"/>
<path d="M89.1829 93.6098H84.2561V98.5366H89.1829V93.6098Z" fill="black"/>
<path d="M94.1098 93.6098H89.1829V98.5366H94.1098V93.6098Z" fill="black"/>
<path d="M108.89 93.6098H103.963V98.5366H108.89V93.6098Z" fill="black"/>
<path d="M128.598 93.6098H123.671V98.5366H128.598V93.6098Z" fill="black"/>
<path d="M138.451 93.6098H133.524V98.5366H138.451V93.6098Z" fill="black"/>
<path d="M143.378 93.6098H138.451V98.5366H143.378V93.6098Z" fill="black"/>
<path d="M153.232 93.6098H148.305V98.5366H153.232V93.6098Z" fill="black"/>
<path d="M168.012 93.6098H163.085V98.5366H168.012V93.6098Z" fill="black"/>
<path d="M177.866 93.6098H172.939V98.5366H177.866V93.6098Z" fill="black"/>
<path d="M182.793 93.6098H177.866V98.5366H182.793V93.6098Z" fill="black"/>
<path d="M187.72 93.6098H182.793V98.5366H187.72V93.6098Z" fill="black"/>
<path d="M10.3537 98.5366H5.42683V103.463H10.3537V98.5366Z" fill="black"/>
<path d="M15.2805 98.5366H10.3537V103.463H15.2805V98.5366Z" fill="black"/>
<path d="M20.2073 98.5366H15.2805V103.463H20.2073V98.5366Z" fill="black"/>
<path d="M25.1341 98.5366H20.2073V103.463H25.1341V98.5366Z" fill="black"/>
<path d="M34.9878 98.5366H30.061V103.463H34.9878V98.5366Z" fill="black"/>
<path d="M39.9146 98.5366H34.9878V103.463H39.9146V98.5366Z" fill="black"/>
<path d="M64.5488 98.5366H59.622V103.463H64.5488V98.5366Z" fill="black"/>
<path d="M69.4756 98.5366H64.5488V103.463H69.4756V98.5366Z" fill="black"/>
<path d="M89.1829 98.5366H84.2561V103.463H89.1829V98.5366Z" fill="black"/>
<path d="M103.963 98.5366H99.0366V103.463H103.963V98.5366Z" fill="black"/>
<path d="M113.817 98.5366H108.89V103.463H113.817V98.5366Z" fill="black"/>
<path d="M128.598 98.5366H123.671V103.463H128.598V98.5366Z" fill="black"/>
<path d="M133.524 98.5366H128.598V103.463H133.524V98.5366Z" fill="black"/>
<path d="M143.378 98.5366H138.451V103.463H143.378V98.5366Z" fill="black"/>
<path d="M172.939 98.5366H168.012V103.463H172.939V98.5366Z" fill="black"/>
<path d="M182.793 98.5366H177.866V103.463H182.793V98.5366Z" fill="black"/>
<path d="M187.72 98.5366H182.793V103.463H187.72V98.5366Z" fill="black"/>
<path d="M192.646 98.5366H187.72V103.463H192.646V98.5366Z" fill="black"/>
<path d="M197.573 98.5366H192.646V103.463H197.573V98.5366Z" fill="black"/>
<path d="M10.3537 103.463H5.42683V108.39H10.3537V103.463Z" fill="black"/>
<path d="M30.061 103.463H25.1341V108.39H30.061V103.463Z" fill="black"/>
<path d="M49.7683 103.463H44.8415V108.39H49.7683V103.463Z" fill="black"/>
<path d="M54.6951 103.463H49.7683V108.39H54.6951V103.463Z" fill="black"/>
<path d="M69.4756 103.463H64.5488V108.39H69.4756V103.463Z" fill="black"/>
<path d="M74.4024 103.463H69.4756V108.39H74.4024V103.463Z" fill="black"/>
<path d="M84.2561 103.463H79.3293V108.39H84.2561V103.463Z" fill="black"/>
<path d="M94.1098 103.463H89.1829V108.39H94.1098V103.463Z" fill="black"/>
<path d="M103.963 103.463H99.0366V108.39H103.963V103.463Z" fill="black"/>
<path d="M113.817 103.463H108.89V108.39H113.817V103.463Z" fill="black"/>
<path d="M148.305 103.463H143.378V108.39H148.305V103.463Z" fill="black"/>
<path d="M168.012 103.463H163.085V108.39H168.012V103.463Z" fill="black"/>
<path d="M177.866 103.463H172.939V108.39H177.866V103.463Z" fill="black"/>
<path d="M182.793 103.463H177.866V108.39H182.793V103.463Z" fill="black"/>
<path d="M192.646 103.463H187.72V108.39H192.646V103.463Z" fill="black"/>
<path d="M5.42683 108.39H0.5V113.317H5.42683V108.39Z" fill="black"/>
<path d="M10.3537 108.39H5.42683V113.317H10.3537V108.39Z" fill="black"/>
<path d="M30.061 108.39H25.1341V113.317H30.061V108.39Z" fill="black"/>
<path d="M34.9878 108.39H30.061V113.317H34.9878V108.39Z" fill="black"/>
<path d="M44.8415 108.39H39.9146V113.317H44.8415V108.39Z" fill="black"/>
<path d="M54.6951 108.39H49.7683V113.317H54.6951V108.39Z" fill="black"/>
<path d="M59.622 108.39H54.6951V113.317H59.622V108.39Z" fill="black"/>
<path d="M69.4756 108.39H64.5488V113.317H69.4756V108.39Z" fill="black"/>
<path d="M74.4024 108.39H69.4756V113.317H74.4024V108.39Z" fill="black"/>
<path d="M84.2561 108.39H79.3293V113.317H84.2561V108.39Z" fill="black"/>
<path d="M89.1829 108.39H84.2561V113.317H89.1829V108.39Z" fill="black"/>
<path d="M94.1098 108.39H89.1829V113.317H94.1098V108.39Z" fill="black"/>
<path d="M99.0366 108.39H94.1098V113.317H99.0366V108.39Z" fill="black"/>
<path d="M113.817 108.39H108.89V113.317H113.817V108.39Z" fill="black"/>
<path d="M118.744 108.39H113.817V113.317H118.744V108.39Z" fill="black"/>
<path d="M138.451 108.39H133.524V113.317H138.451V108.39Z" fill="black"/>
<path d="M143.378 108.39H138.451V113.317H143.378V108.39Z" fill="black"/>
<path d="M158.159 108.39H153.232V113.317H158.159V108.39Z" fill="black"/>
<path d="M163.085 108.39H158.159V113.317H163.085V108.39Z" fill="black"/>
<path d="M168.012 108.39H163.085V113.317H168.012V108.39Z" fill="black"/>
<path d="M172.939 108.39H168.012V113.317H172.939V108.39Z" fill="black"/>
<path d="M25.1341 113.317H20.2073V118.244H25.1341V113.317Z" fill="black"/>
<path d="M49.7683 113.317H44.8415V118.244H49.7683V113.317Z" fill="black"/>
<path d="M89.1829 113.317H84.2561V118.244H89.1829V113.317Z" fill="black"/>
<path d="M94.1098 113.317H89.1829V118.244H94.1098V113.317Z" fill="black"/>
<path d="M108.89 113.317H103.963V118.244H108.89V113.317Z" fill="black"/>
<path d="M128.598 113.317H123.671V118.244H128.598V113.317Z" fill="black"/>
<path d="M138.451 113.317H133.524V118.244H138.451V113.317Z" fill="black"/>
<path d="M143.378 113.317H138.451V118.244H143.378V113.317Z" fill="black"/>
<path d="M158.159 113.317H153.232V118.244H158.159V113.317Z" fill="black"/>
<path d="M163.085 113.317H158.159V118.244H163.085V113.317Z" fill="black"/>
<path d="M168.012 113.317H163.085V118.244H168.012V113.317Z" fill="black"/>
<path d="M177.866 113.317H172.939V118.244H177.866V113.317Z" fill="black"/>
<path d="M182.793 113.317H177.866V118.244H182.793V113.317Z" fill="black"/>
<path d="M187.72 113.317H182.793V118.244H187.72V113.317Z" fill="black"/>
<path d="M202.5 113.317H197.573V118.244H202.5V113.317Z" fill="black"/>
<path d="M10.3537 118.244H5.42683V123.171H10.3537V118.244Z" fill="black"/>
<path d="M20.2073 118.244H15.2805V123.171H20.2073L20.2073 118.244Z" fill="black"/>
<path d="M25.1341 118.244H20.2073L20.2073 123.171H25.1341V118.244Z" fill="black"/>
<path d="M30.061 118.244H25.1341V123.171H30.061V118.244Z" fill="black"/>
<path d="M34.9878 118.244H30.061V123.171H34.9878V118.244Z" fill="black"/>
<path d="M44.8415 118.244H39.9146V123.171H44.8415V118.244Z" fill="black"/>
<path d="M49.7683 118.244H44.8415V123.171H49.7683V118.244Z" fill="black"/>
<path d="M69.4756 118.244H64.5488V123.171H69.4756V118.244Z" fill="black"/>
<path d="M79.3293 118.244H74.4024V123.171H79.3293V118.244Z" fill="black"/>
<path d="M118.744 118.244H113.817V123.171H118.744V118.244Z" fill="black"/>
<path d="M123.671 118.244H118.744V123.171H123.671V118.244Z" fill="black"/>
<path d="M143.378 118.244H138.451V123.171H143.378V118.244Z" fill="black"/>
<path d="M153.232 118.244H148.305V123.171H153.232V118.244Z" fill="black"/>
<path d="M172.939 118.244H168.012V123.171H172.939V118.244Z" fill="black"/>
<path d="M182.793 118.244H177.866V123.171H182.793V118.244Z" fill="black"/>
<path d="M202.5 118.244H197.573V123.171H202.5V118.244Z" fill="black"/>
<path d="M5.42683 123.171H0.5V128.098H5.42683V123.171Z" fill="black"/>
<path d="M30.061 123.171H25.1341V128.098H30.061V123.171Z" fill="black"/>
<path d="M44.8415 123.171H39.9146V128.098H44.8415V123.171Z" fill="black"/>
<path d="M54.6951 123.171H49.7683V128.098H54.6951V123.171Z" fill="black"/>
<path d="M69.4756 123.171H64.5488V128.098H69.4756V123.171Z" fill="black"/>
<path d="M74.4024 123.171H69.4756V128.098H74.4024V123.171Z" fill="black"/>
<path d="M84.2561 123.171H79.3293V128.098H84.2561V123.171Z" fill="black"/>
<path d="M89.1829 123.171H84.2561V128.098H89.1829V123.171Z" fill="black"/>
<path d="M99.0366 123.171H94.1098V128.098H99.0366V123.171Z" fill="black"/>
<path d="M108.89 123.171H103.963V128.098H108.89V123.171Z" fill="black"/>
<path d="M113.817 123.171H108.89V128.098H113.817V123.171Z" fill="black"/>
<path d="M143.378 123.171H138.451V128.098H143.378V123.171Z" fill="black"/>
<path d="M148.305 123.171H143.378V128.098H148.305V123.171Z" fill="black"/>
<path d="M163.085 123.171H158.159V128.098H163.085V123.171Z" fill="black"/>
<path d="M182.793 123.171H177.866V128.098H182.793V123.171Z" fill="black"/>
<path d="M192.646 123.171H187.72V128.098H192.646V123.171Z" fill="black"/>
<path d="M202.5 123.171H197.573V128.098H202.5V123.171Z" fill="black"/>
<path d="M5.42683 128.098H0.5V133.024H5.42683V128.098Z" fill="black"/>
<path d="M15.2805 128.098H10.3537V133.024H15.2805V128.098Z" fill="black"/>
<path d="M20.2073 128.098H15.2805V133.024H20.2073V128.098Z" fill="black"/>
<path d="M25.1341 128.098H20.2073V133.024H25.1341V128.098Z" fill="black"/>
<path d="M34.9878 128.098H30.061V133.024H34.9878V128.098Z" fill="black"/>
<path d="M49.7683 128.098H44.8415V133.024H49.7683V128.098Z" fill="black"/>
<path d="M59.622 128.098H54.6951V133.024H59.622V128.098Z" fill="black"/>
<path d="M74.4024 128.098H69.4756V133.024H74.4024V128.098Z" fill="black"/>
<path d="M79.3293 128.098H74.4024V133.024H79.3293V128.098Z" fill="black"/>
<path d="M84.2561 128.098H79.3293V133.024H84.2561V128.098Z" fill="black"/>
<path d="M103.963 128.098H99.0366V133.024H103.963V128.098Z" fill="black"/>
<path d="M108.89 128.098H103.963V133.024H108.89V128.098Z" fill="black"/>
<path d="M113.817 128.098H108.89V133.024H113.817V128.098Z" fill="black"/>
<path d="M133.524 128.098H128.598V133.024H133.524V128.098Z" fill="black"/>
<path d="M148.305 128.098H143.378V133.024H148.305V128.098Z" fill="black"/>
<path d="M153.232 128.098H148.305V133.024H153.232V128.098Z" fill="black"/>
<path d="M158.159 128.098H153.232V133.024H158.159V128.098Z" fill="black"/>
<path d="M168.012 128.098H163.085V133.024H168.012V128.098Z" fill="black"/>
<path d="M177.866 128.098H172.939V133.024H177.866V128.098Z" fill="black"/>
<path d="M182.793 128.098H177.866V133.024H182.793V128.098Z" fill="black"/>
<path d="M187.72 128.098H182.793V133.024H187.72V128.098Z" fill="black"/>
<path d="M202.5 128.098H197.573V133.024H202.5V128.098Z" fill="black"/>
<path d="M15.2805 133.024H10.3537V137.951H15.2805V133.024Z" fill="black"/>
<path d="M20.2073 133.024H15.2805V137.951H20.2073V133.024Z" fill="black"/>
<path d="M39.9146 133.024H34.9878V137.951H39.9146V133.024Z" fill="black"/>
<path d="M44.8415 133.024H39.9146V137.951H44.8415V133.024Z" fill="black"/>
<path d="M49.7683 133.024H44.8415V137.951H49.7683V133.024Z" fill="black"/>
<path d="M54.6951 133.024H49.7683V137.951H54.6951V133.024Z" fill="black"/>
<path d="M64.5488 133.024H59.622V137.951H64.5488V133.024Z" fill="black"/>
<path d="M79.3293 133.024H74.4024V137.951H79.3293V133.024Z" fill="black"/>
<path d="M89.1829 133.024H84.2561V137.951H89.1829V133.024Z" fill="black"/>
<path d="M94.1098 133.024H89.1829V137.951H94.1098V133.024Z" fill="black"/>
<path d="M108.89 133.024H103.963V137.951H108.89V133.024Z" fill="black"/>
<path d="M113.817 133.024H108.89V137.951H113.817V133.024Z" fill="black"/>
<path d="M123.671 133.024H118.744V137.951H123.671V133.024Z" fill="black"/>
<path d="M128.598 133.024H123.671V137.951H128.598V133.024Z" fill="black"/>
<path d="M133.524 133.024H128.598V137.951H133.524V133.024Z" fill="black"/>
<path d="M138.451 133.024H133.524V137.951H138.451V133.024Z" fill="black"/>
<path d="M143.378 133.024H138.451V137.951H143.378V133.024Z" fill="black"/>
<path d="M153.232 133.024H148.305V137.951H153.232V133.024Z" fill="black"/>
<path d="M158.159 133.024H153.232V137.951H158.159V133.024Z" fill="black"/>
<path d="M168.012 133.024H163.085V137.951H168.012V133.024Z" fill="black"/>
<path d="M172.939 133.024H168.012V137.951H172.939V133.024Z" fill="black"/>
<path d="M187.72 133.024H182.793V137.951H187.72V133.024Z" fill="black"/>
<path d="M192.646 133.024H187.72V137.951H192.646V133.024Z" fill="black"/>
<path d="M197.573 133.024H192.646V137.951H197.573V133.024Z" fill="black"/>
<path d="M10.3537 137.951H5.42683V142.878H10.3537V137.951Z" fill="black"/>
<path d="M20.2073 137.951H15.2805V142.878H20.2073V137.951Z" fill="black"/>
<path d="M25.1341 137.951H20.2073V142.878H25.1341V137.951Z" fill="black"/>
<path d="M34.9878 137.951H30.061V142.878H34.9878V137.951Z" fill="black"/>
<path d="M54.6951 137.951H49.7683V142.878H54.6951V137.951Z" fill="black"/>
<path d="M59.622 137.951H54.6951V142.878H59.622V137.951Z" fill="black"/>
<path d="M64.5488 137.951H59.622V142.878H64.5488V137.951Z" fill="black"/>
<path d="M69.4756 137.951H64.5488V142.878H69.4756V137.951Z" fill="black"/>
<path d="M89.1829 137.951H84.2561V142.878H89.1829V137.951Z" fill="black"/>
<path d="M94.1098 137.951H89.1829V142.878H94.1098V137.951Z" fill="black"/>
<path d="M99.0366 137.951H94.1098V142.878H99.0366V137.951Z" fill="black"/>
<path d="M103.963 137.951H99.0366V142.878H103.963V137.951Z" fill="black"/>
<path d="M113.817 137.951H108.89V142.878H113.817V137.951Z" fill="black"/>
<path d="M118.744 137.951H113.817V142.878H118.744V137.951Z" fill="black"/>
<path d="M123.671 137.951H118.744V142.878H123.671V137.951Z" fill="black"/>
<path d="M128.598 137.951H123.671V142.878H128.598V137.951Z" fill="black"/>
<path d="M133.524 137.951H128.598V142.878H133.524V137.951Z" fill="black"/>
<path d="M158.159 137.951H153.232V142.878H158.159V137.951Z" fill="black"/>
<path d="M172.939 137.951H168.012V142.878H172.939V137.951Z" fill="black"/>
<path d="M177.866 137.951H172.939V142.878H177.866V137.951Z" fill="black"/>
<path d="M187.72 137.951H182.793V142.878H187.72V137.951Z" fill="black"/>
<path d="M192.646 137.951H187.72V142.878H192.646V137.951Z" fill="black"/>
<path d="M202.5 137.951H197.573V142.878H202.5V137.951Z" fill="black"/>
<path d="M10.3537 142.878H5.42683V147.805H10.3537V142.878Z" fill="black"/>
<path d="M20.2073 142.878H15.2805V147.805H20.2073V142.878Z" fill="black"/>
<path d="M25.1341 142.878H20.2073V147.805H25.1341V142.878Z" fill="black"/>
<path d="M30.061 142.878H25.1341V147.805H30.061V142.878Z" fill="black"/>
<path d="M44.8415 142.878H39.9146V147.805H44.8415V142.878Z" fill="black"/>
<path d="M49.7683 142.878H44.8415V147.805H49.7683V142.878Z" fill="black"/>
<path d="M54.6951 142.878H49.7683V147.805H54.6951V142.878Z" fill="black"/>
<path d="M84.2561 142.878H79.3293V147.805H84.2561V142.878Z" fill="black"/>
<path d="M89.1829 142.878H84.2561V147.805H89.1829V142.878Z" fill="black"/>
<path d="M94.1098 142.878H89.1829V147.805H94.1098V142.878Z" fill="black"/>
<path d="M103.963 142.878H99.0366V147.805H103.963V142.878Z" fill="black"/>
<path d="M113.817 142.878H108.89V147.805H113.817V142.878Z" fill="black"/>
<path d="M133.524 142.878H128.598V147.805H133.524V142.878Z" fill="black"/>
<path d="M143.378 142.878H138.451V147.805H143.378V142.878Z" fill="black"/>
<path d="M148.305 142.878H143.378V147.805H148.305V142.878Z" fill="black"/>
<path d="M153.232 142.878H148.305V147.805H153.232V142.878Z" fill="black"/>
<path d="M163.085 142.878H158.159V147.805H163.085V142.878Z" fill="black"/>
<path d="M168.012 142.878H163.085V147.805H168.012V142.878Z" fill="black"/>
<path d="M187.72 142.878H182.793V147.805H187.72V142.878Z" fill="black"/>
<path d="M202.5 142.878H197.573V147.805H202.5V142.878Z" fill="black"/>
<path d="M25.1341 147.805H20.2073L20.2073 152.732H25.1341V147.805Z" fill="black"/>
<path d="M34.9878 147.805H30.061V152.732H34.9878V147.805Z" fill="black"/>
<path d="M89.1829 147.805H84.2561V152.732H89.1829V147.805Z" fill="black"/>
<path d="M99.0366 147.805H94.1098V152.732H99.0366V147.805Z" fill="black"/>
<path d="M108.89 147.805H103.963V152.732H108.89V147.805Z" fill="black"/>
<path d="M128.598 147.805H123.671V152.732H128.598V147.805Z" fill="black"/>
<path d="M133.524 147.805H128.598V152.732H133.524V147.805Z" fill="black"/>
<path d="M148.305 147.805H143.378V152.732H148.305V147.805Z" fill="black"/>
<path d="M163.085 147.805H158.159V152.732H163.085V147.805Z" fill="black"/>
<path d="M172.939 147.805H168.012V152.732H172.939V147.805Z" fill="black"/>
<path d="M187.72 147.805H182.793V152.732H187.72V147.805Z" fill="black"/>
<path d="M197.573 147.805H192.646V152.732H197.573V147.805Z" fill="black"/>
<path d="M20.2073 152.732H15.2805V157.659H20.2073L20.2073 152.732Z" fill="black"/>
<path d="M44.8415 152.732H39.9146V157.659H44.8415V152.732Z" fill="black"/>
<path d="M49.7683 152.732H44.8415V157.659H49.7683V152.732Z" fill="black"/>
<path d="M59.622 152.732H54.6951V157.659H59.622V152.732Z" fill="black"/>
<path d="M69.4756 152.732H64.5488V157.659H69.4756V152.732Z" fill="black"/>
<path d="M79.3293 152.732H74.4024V157.659H79.3293V152.732Z" fill="black"/>
<path d="M89.1829 152.732H84.2561V157.659H89.1829V152.732Z" fill="black"/>
<path d="M94.1098 152.732H89.1829V157.659H94.1098V152.732Z" fill="black"/>
<path d="M108.89 152.732H103.963V157.659H108.89V152.732Z" fill="black"/>
<path d="M123.671 152.732H118.744V157.659H123.671V152.732Z" fill="black"/>
<path d="M128.598 152.732H123.671V157.659H128.598V152.732Z" fill="black"/>
<path d="M138.451 152.732H133.524V157.659H138.451V152.732Z" fill="black"/>
<path d="M143.378 152.732H138.451V157.659H143.378V152.732Z" fill="black"/>
<path d="M148.305 152.732H143.378V157.659H148.305V152.732Z" fill="black"/>
<path d="M153.232 152.732H148.305V157.659H153.232V152.732Z" fill="black"/>
<path d="M172.939 152.732H168.012V157.659H172.939V152.732Z" fill="black"/>
<path d="M177.866 152.732H172.939V157.659H177.866V152.732Z" fill="black"/>
<path d="M182.793 152.732H177.866V157.659H182.793V152.732Z" fill="black"/>
<path d="M187.72 152.732H182.793V157.659H187.72V152.732Z" fill="black"/>
<path d="M192.646 152.732H187.72V157.659H192.646V152.732Z" fill="black"/>
<path d="M197.573 152.732H192.646V157.659H197.573V152.732Z" fill="black"/>
<path d="M202.5 152.732H197.573V157.659H202.5V152.732Z" fill="black"/>
<path d="M10.3537 157.659H5.42683V162.585H10.3537V157.659Z" fill="black"/>
<path d="M25.1341 157.659H20.2073L20.2073 162.585H25.1341V157.659Z" fill="black"/>
<path d="M30.061 157.659H25.1341V162.585H30.061V157.659Z" fill="black"/>
<path d="M34.9878 157.659H30.061V162.585H34.9878V157.659Z" fill="black"/>
<path d="M39.9146 157.659H34.9878V162.585H39.9146V157.659Z" fill="black"/>
<path d="M54.6951 157.659H49.7683V162.585H54.6951V157.659Z" fill="black"/>
<path d="M59.622 157.659H54.6951V162.585H59.622V157.659Z" fill="black"/>
<path d="M64.5488 157.659H59.622V162.585H64.5488V157.659Z" fill="black"/>
<path d="M69.4756 157.659H64.5488V162.585H69.4756V157.659Z" fill="black"/>
<path d="M89.1829 157.659H84.2561V162.585H89.1829V157.659Z" fill="black"/>
<path d="M94.1098 157.659H89.1829V162.585H94.1098V157.659Z" fill="black"/>
<path d="M99.0366 157.659H94.1098V162.585H99.0366V157.659Z" fill="black"/>
<path d="M118.744 157.659H113.817V162.585H118.744V157.659Z" fill="black"/>
<path d="M123.671 157.659H118.744V162.585H123.671V157.659Z" fill="black"/>
<path d="M133.524 157.659H128.598V162.585H133.524V157.659Z" fill="black"/>
<path d="M148.305 157.659H143.378V162.585H148.305V157.659Z" fill="black"/>
<path d="M153.232 157.659H148.305V162.585H153.232V157.659Z" fill="black"/>
<path d="M158.159 157.659H153.232V162.585H158.159V157.659Z" fill="black"/>
<path d="M163.085 157.659H158.159V162.585H163.085V157.659Z" fill="black"/>
<path d="M168.012 157.659H163.085V162.585H168.012V157.659Z" fill="black"/>
<path d="M172.939 157.659H168.012V162.585H172.939V157.659Z" fill="black"/>
<path d="M177.866 157.659H172.939V162.585H177.866V157.659Z" fill="black"/>
<path d="M182.793 157.659H177.866V162.585H182.793V157.659Z" fill="black"/>
<path d="M44.8415 162.585H39.9146V167.512H44.8415V162.585Z" fill="black"/>
<path d="M59.622 162.585H54.6951V167.512H59.622V162.585Z" fill="black"/>
<path d="M69.4756 162.585H64.5488V167.512H69.4756V162.585Z" fill="black"/>
<path d="M74.4024 162.585H69.4756V167.512H74.4024V162.585Z" fill="black"/>
<path d="M79.3293 162.585H74.4024V167.512H79.3293V162.585Z" fill="black"/>
<path d="M84.2561 162.585H79.3293V167.512H84.2561V162.585Z" fill="black"/>
<path d="M89.1829 162.585H84.2561V167.512H89.1829V162.585Z" fill="black"/>
<path d="M99.0366 162.585H94.1098V167.512H99.0366V162.585Z" fill="black"/>
<path d="M108.89 162.585H103.963V167.512H108.89V162.585Z" fill="black"/>
<path d="M118.744 162.585H113.817V167.512H118.744V162.585Z" fill="black"/>
<path d="M133.524 162.585H128.598V167.512H133.524V162.585Z" fill="black"/>
<path d="M148.305 162.585H143.378V167.512H148.305V162.585Z" fill="black"/>
<path d="M153.232 162.585H148.305V167.512H153.232V162.585Z" fill="black"/>
<path d="M163.085 162.585H158.159V167.512H163.085V162.585Z" fill="black"/>
<path d="M182.793 162.585H177.866V167.512H182.793V162.585Z" fill="black"/>
<path d="M192.646 162.585H187.72V167.512H192.646V162.585Z" fill="black"/>
<path d="M197.573 162.585H192.646V167.512H197.573V162.585Z" fill="black"/>
<path d="M5.42683 167.512H0.5V172.439H5.42683V167.512Z" fill="black"/>
<path d="M10.3537 167.512H5.42683V172.439H10.3537V167.512Z" fill="black"/>
<path d="M15.2805 167.512H10.3537V172.439H15.2805V167.512Z" fill="black"/>
<path d="M20.2073 167.512H15.2805V172.439H20.2073V167.512Z" fill="black"/>
<path d="M25.1341 167.512H20.2073V172.439H25.1341V167.512Z" fill="black"/>
<path d="M30.061 167.512H25.1341V172.439H30.061V167.512Z" fill="black"/>
<path d="M34.9878 167.512H30.061V172.439H34.9878V167.512Z" fill="black"/>
<path d="M44.8415 167.512H39.9146V172.439H44.8415V167.512Z" fill="black"/>
<path d="M54.6951 167.512H49.7683V172.439H54.6951V167.512Z" fill="black"/>
<path d="M59.622 167.512H54.6951V172.439H59.622V167.512Z" fill="black"/>
<path d="M64.5488 167.512H59.622V172.439H64.5488V167.512Z" fill="black"/>
<path d="M69.4756 167.512H64.5488V172.439H69.4756V167.512Z" fill="black"/>
<path d="M89.1829 167.512H84.2561V172.439H89.1829V167.512Z" fill="black"/>
<path d="M99.0366 167.512H94.1098V172.439H99.0366V167.512Z" fill="black"/>
<path d="M113.817 167.512H108.89V172.439H113.817V167.512Z" fill="black"/>
<path d="M123.671 167.512H118.744V172.439H123.671V167.512Z" fill="black"/>
<path d="M128.598 167.512H123.671V172.439H128.598V167.512Z" fill="black"/>
<path d="M148.305 167.512H143.378V172.439H148.305V167.512Z" fill="black"/>
<path d="M158.159 167.512H153.232V172.439H158.159V167.512Z" fill="black"/>
<path d="M163.085 167.512H158.159V172.439H163.085V167.512Z" fill="black"/>
<path d="M172.939 167.512H168.012V172.439H172.939V167.512Z" fill="black"/>
<path d="M182.793 167.512H177.866V172.439H182.793V167.512Z" fill="black"/>
<path d="M192.646 167.512H187.72V172.439H192.646V167.512Z" fill="black"/>
<path d="M197.573 167.512H192.646V172.439H197.573V167.512Z" fill="black"/>
<path d="M5.42683 172.439H0.5V177.366H5.42683V172.439Z" fill="black"/>
<path d="M34.9878 172.439H30.061V177.366H34.9878V172.439Z" fill="black"/>
<path d="M49.7683 172.439H44.8415V177.366H49.7683V172.439Z" fill="black"/>
<path d="M54.6951 172.439H49.7683V177.366H54.6951V172.439Z" fill="black"/>
<path d="M59.622 172.439H54.6951V177.366H59.622V172.439Z" fill="black"/>
<path d="M74.4024 172.439H69.4756V177.366H74.4024V172.439Z" fill="black"/>
<path d="M79.3293 172.439H74.4024V177.366H79.3293V172.439Z" fill="black"/>
<path d="M84.2561 172.439H79.3293V177.366H84.2561V172.439Z" fill="black"/>
<path d="M89.1829 172.439H84.2561V177.366H89.1829V172.439Z" fill="black"/>
<path d="M94.1098 172.439H89.1829V177.366H94.1098V172.439Z" fill="black"/>
<path d="M108.89 172.439H103.963V177.366H108.89V172.439Z" fill="black"/>
<path d="M128.598 172.439H123.671V177.366H128.598V172.439Z" fill="black"/>
<path d="M133.524 172.439H128.598V177.366H133.524V172.439Z" fill="black"/>
<path d="M138.451 172.439H133.524V177.366H138.451V172.439Z" fill="black"/>
<path d="M148.305 172.439H143.378V177.366H148.305V172.439Z" fill="black"/>
<path d="M163.085 172.439H158.159V177.366H163.085V172.439Z" fill="black"/>
<path d="M182.793 172.439H177.866V177.366H182.793V172.439Z" fill="black"/>
<path d="M187.72 172.439H182.793V177.366H187.72V172.439Z" fill="black"/>
<path d="M192.646 172.439H187.72V177.366H192.646V172.439Z" fill="black"/>
<path d="M202.5 172.439H197.573V177.366H202.5V172.439Z" fill="black"/>
<path d="M5.42683 177.366H0.5V182.293H5.42683V177.366Z" fill="black"/>
<path d="M15.2805 177.366H10.3537V182.293H15.2805V177.366Z" fill="black"/>
<path d="M20.2073 177.366H15.2805V182.293H20.2073V177.366Z" fill="black"/>
<path d="M25.1341 177.366H20.2073V182.293H25.1341V177.366Z" fill="black"/>
<path d="M34.9878 177.366H30.061V182.293H34.9878V177.366Z" fill="black"/>
<path d="M49.7683 177.366H44.8415V182.293H49.7683V177.366Z" fill="black"/>
<path d="M69.4756 177.366H64.5488V182.293H69.4756V177.366Z" fill="black"/>
<path d="M89.1829 177.366H84.2561V182.293H89.1829V177.366Z" fill="black"/>
<path d="M94.1098 177.366H89.1829V182.293H94.1098V177.366Z" fill="black"/>
<path d="M99.0366 177.366H94.1098V182.293H99.0366V177.366Z" fill="black"/>
<path d="M108.89 177.366H103.963V182.293H108.89V177.366Z" fill="black"/>
<path d="M113.817 177.366H108.89V182.293H113.817V177.366Z" fill="black"/>
<path d="M118.744 177.366H113.817V182.293H118.744V177.366Z" fill="black"/>
<path d="M123.671 177.366H118.744V182.293H123.671V177.366Z" fill="black"/>
<path d="M128.598 177.366H123.671V182.293H128.598V177.366Z" fill="black"/>
<path d="M133.524 177.366H128.598V182.293H133.524V177.366Z" fill="black"/>
<path d="M148.305 177.366H143.378V182.293H148.305V177.366Z" fill="black"/>
<path d="M153.232 177.366H148.305V182.293H153.232V177.366Z" fill="black"/>
<path d="M163.085 177.366H158.159V182.293H163.085V177.366Z" fill="black"/>
<path d="M168.012 177.366H163.085V182.293H168.012V177.366Z" fill="black"/>
<path d="M172.939 177.366H168.012V182.293H172.939V177.366Z" fill="black"/>
<path d="M177.866 177.366H172.939V182.293H177.866V177.366Z" fill="black"/>
<path d="M182.793 177.366H177.866V182.293H182.793V177.366Z" fill="black"/>
<path d="M192.646 177.366H187.72V182.293H192.646V177.366Z" fill="black"/>
<path d="M197.573 177.366H192.646V182.293H197.573V177.366Z" fill="black"/>
<path d="M202.5 177.366H197.573V182.293H202.5V177.366Z" fill="black"/>
<path d="M5.42683 182.293H0.5V187.22H5.42683V182.293Z" fill="black"/>
<path d="M15.2805 182.293H10.3537V187.22H15.2805V182.293Z" fill="black"/>
<path d="M20.2073 182.293H15.2805V187.22H20.2073V182.293Z" fill="black"/>
<path d="M25.1341 182.293H20.2073V187.22H25.1341V182.293Z" fill="black"/>
<path d="M34.9878 182.293H30.061V187.22H34.9878V182.293Z" fill="black"/>
<path d="M44.8415 182.293H39.9146V187.22H44.8415V182.293Z" fill="black"/>
<path d="M59.622 182.293H54.6951V187.22H59.622V182.293Z" fill="black"/>
<path d="M69.4756 182.293H64.5488V187.22H69.4756V182.293Z" fill="black"/>
<path d="M74.4024 182.293H69.4756V187.22H74.4024V182.293Z" fill="black"/>
<path d="M79.3293 182.293H74.4024V187.22H79.3293V182.293Z" fill="black"/>
<path d="M89.1829 182.293H84.2561V187.22H89.1829V182.293Z" fill="black"/>
<path d="M99.0366 182.293H94.1098V187.22H99.0366V182.293Z" fill="black"/>
<path d="M103.963 182.293H99.0366V187.22H103.963V182.293Z" fill="black"/>
<path d="M108.89 182.293H103.963V187.22H108.89V182.293Z" fill="black"/>
<path d="M128.598 182.293H123.671V187.22H128.598V182.293Z" fill="black"/>
<path d="M138.451 182.293H133.524V187.22H138.451V182.293Z" fill="black"/>
<path d="M143.378 182.293H138.451V187.22H143.378V182.293Z" fill="black"/>
<path d="M148.305 182.293H143.378V187.22H148.305V182.293Z" fill="black"/>
<path d="M153.232 182.293H148.305V187.22H153.232V182.293Z" fill="black"/>
<path d="M158.159 182.293H153.232V187.22H158.159V182.293Z" fill="black"/>
<path d="M168.012 182.293H163.085V187.22H168.012V182.293Z" fill="black"/>
<path d="M177.866 182.293H172.939V187.22H177.866V182.293Z" fill="black"/>
<path d="M182.793 182.293H177.866V187.22H182.793V182.293Z" fill="black"/>
<path d="M187.72 182.293H182.793V187.22H187.72V182.293Z" fill="black"/>
<path d="M192.646 182.293H187.72V187.22H192.646V182.293Z" fill="black"/>
<path d="M197.573 182.293H192.646V187.22H197.573V182.293Z" fill="black"/>
<path d="M202.5 182.293H197.573V187.22H202.5V182.293Z" fill="black"/>
<path d="M5.42683 187.22H0.5V192.146H5.42683V187.22Z" fill="black"/>
<path d="M15.2805 187.22H10.3537V192.146H15.2805V187.22Z" fill="black"/>
<path d="M20.2073 187.22H15.2805V192.146H20.2073V187.22Z" fill="black"/>
<path d="M25.1341 187.22H20.2073V192.146H25.1341V187.22Z" fill="black"/>
<path d="M34.9878 187.22H30.061V192.146H34.9878V187.22Z" fill="black"/>
<path d="M44.8415 187.22H39.9146V192.146H44.8415V187.22Z" fill="black"/>
<path d="M69.4756 187.22H64.5488V192.146H69.4756V187.22Z" fill="black"/>
<path d="M74.4024 187.22H69.4756V192.146H74.4024V187.22Z" fill="black"/>
<path d="M79.3293 187.22H74.4024V192.146H79.3293V187.22Z" fill="black"/>
<path d="M84.2561 187.22H79.3293V192.146H84.2561V187.22Z" fill="black"/>
<path d="M94.1098 187.22H89.1829V192.146H94.1098V187.22Z" fill="black"/>
<path d="M103.963 187.22H99.0366V192.146H103.963V187.22Z" fill="black"/>
<path d="M113.817 187.22H108.89V192.146H113.817V187.22Z" fill="black"/>
<path d="M138.451 187.22H133.524V192.146H138.451V187.22Z" fill="black"/>
<path d="M143.378 187.22H138.451V192.146H143.378V187.22Z" fill="black"/>
<path d="M148.305 187.22H143.378V192.146H148.305V187.22Z" fill="black"/>
<path d="M153.232 187.22H148.305V192.146H153.232V187.22Z" fill="black"/>
<path d="M163.085 187.22H158.159V192.146H163.085V187.22Z" fill="black"/>
<path d="M168.012 187.22H163.085V192.146H168.012V187.22Z" fill="black"/>
<path d="M187.72 187.22H182.793V192.146H187.72V187.22Z" fill="black"/>
<path d="M197.573 187.22H192.646V192.146H197.573V187.22Z" fill="black"/>
<path d="M202.5 187.22H197.573V192.146H202.5V187.22Z" fill="black"/>
<path d="M5.42683 192.146H0.5V197.073H5.42683V192.146Z" fill="black"/>
<path d="M34.9878 192.146H30.061V197.073H34.9878V192.146Z" fill="black"/>
<path d="M44.8415 192.146H39.9146V197.073H44.8415V192.146Z" fill="black"/>
<path d="M59.622 192.146H54.6951V197.073H59.622V192.146Z" fill="black"/>
<path d="M69.4756 192.146H64.5488V197.073H69.4756V192.146Z" fill="black"/>
<path d="M138.451 192.146H133.524V197.073H138.451V192.146Z" fill="black"/>
<path d="M143.378 192.146H138.451V197.073H143.378V192.146Z" fill="black"/>
<path d="M153.232 192.146H148.305V197.073H153.232V192.146Z" fill="black"/>
<path d="M158.159 192.146H153.232V197.073H158.159V192.146Z" fill="black"/>
<path d="M187.72 192.146H182.793V197.073H187.72V192.146Z" fill="black"/>
<path d="M5.42683 197.073H0.5V202H5.42683V197.073Z" fill="black"/>
<path d="M10.3537 197.073H5.42683V202H10.3537V197.073Z" fill="black"/>
<path d="M15.2805 197.073H10.3537V202H15.2805V197.073Z" fill="black"/>
<path d="M20.2073 197.073H15.2805V202H20.2073V197.073Z" fill="black"/>
<path d="M25.1341 197.073H20.2073V202H25.1341V197.073Z" fill="black"/>
<path d="M30.061 197.073H25.1341V202H30.061V197.073Z" fill="black"/>
<path d="M34.9878 197.073H30.061V202H34.9878V197.073Z" fill="black"/>
<path d="M59.622 197.073H54.6951V202H59.622V197.073Z" fill="black"/>
<path d="M64.5488 197.073H59.622V202H64.5488V197.073Z" fill="black"/>
<path d="M69.4756 197.073H64.5488V202H69.4756V197.073Z" fill="black"/>
<path d="M89.1829 197.073H84.2561V202H89.1829V197.073Z" fill="black"/>
<path d="M94.1098 197.073H89.1829V202H94.1098V197.073Z" fill="black"/>
<path d="M99.0366 197.073H94.1098V202H99.0366V197.073Z" fill="black"/>
<path d="M128.598 197.073H123.671V202H128.598V197.073Z" fill="black"/>
<path d="M138.451 197.073H133.524V202H138.451V197.073Z" fill="black"/>
<path d="M143.378 197.073H138.451V202H143.378V197.073Z" fill="black"/>
<path d="M148.305 197.073H143.378V202H148.305V197.073Z" fill="black"/>
<path d="M153.232 197.073H148.305V202H153.232V197.073Z" fill="black"/>
<path d="M158.159 197.073H153.232V202H158.159V197.073Z" fill="black"/>
<path d="M182.793 197.073H177.866V202H182.793V197.073Z" fill="black"/>
<path d="M197.573 197.073H192.646V202H197.573V197.073Z" fill="black"/>
</svg>
